<mxfile host="Electron" modified="2024-06-19T09:57:28.207Z" agent="Mozilla/5.0 (Windows NT 10.0; Win64; x64) AppleWebKit/537.36 (KHTML, like Gecko) draw.io/24.5.3 Chrome/124.0.6367.207 Electron/30.0.6 Safari/537.36" etag="NaH4NJk3VDLnm8aNZ6NK" version="24.5.3" type="device" pages="5">
  <diagram id="joFaeiwUboHRHQpkJF65" name="调用deepspeed例子">
    <mxGraphModel dx="1440" dy="857" grid="1" gridSize="10" guides="1" tooltips="1" connect="1" arrows="1" fold="1" page="1" pageScale="1" pageWidth="827" pageHeight="1169" math="0" shadow="0">
      <root>
        <mxCell id="0" />
        <mxCell id="1" parent="0" />
      </root>
    </mxGraphModel>
  </diagram>
  <diagram name="概览" id="paccpdhnzPeUhExZD2dd">
    <mxGraphModel dx="2267" dy="857" grid="1" gridSize="10" guides="1" tooltips="1" connect="1" arrows="1" fold="1" page="1" pageScale="1" pageWidth="827" pageHeight="1169" math="0" shadow="0">
      <root>
        <mxCell id="0" />
        <mxCell id="1" parent="0" />
        <mxCell id="TA8zNT7-pwDqvw6uCiOK-3" value="" style="edgeStyle=orthogonalEdgeStyle;rounded=0;orthogonalLoop=1;jettySize=auto;html=1;" parent="1" source="TA8zNT7-pwDqvw6uCiOK-1" target="TA8zNT7-pwDqvw6uCiOK-2" edge="1">
          <mxGeometry relative="1" as="geometry" />
        </mxCell>
        <mxCell id="TA8zNT7-pwDqvw6uCiOK-1" value="ds入口&lt;div&gt;deepspeed/__iniit__.py/initialize&lt;/div&gt;" style="rounded=1;whiteSpace=wrap;html=1;" parent="1" vertex="1">
          <mxGeometry x="240" y="140" width="200" height="60" as="geometry" />
        </mxCell>
        <mxCell id="lRAmw5FP0DqjBfPE-mZ1-2" style="edgeStyle=orthogonalEdgeStyle;rounded=0;orthogonalLoop=1;jettySize=auto;html=1;exitX=0.5;exitY=1;exitDx=0;exitDy=0;entryX=0.5;entryY=0;entryDx=0;entryDy=0;" parent="1" source="TA8zNT7-pwDqvw6uCiOK-2" target="lRAmw5FP0DqjBfPE-mZ1-1" edge="1">
          <mxGeometry relative="1" as="geometry" />
        </mxCell>
        <mxCell id="TA8zNT7-pwDqvw6uCiOK-2" value="通信初始化&lt;div&gt;&lt;div style=&quot;color: rgb(204, 204, 204); background-color: rgb(31, 31, 31); font-family: Consolas, &amp;quot;Courier New&amp;quot;, monospace; font-size: 14px; line-height: 19px; white-space: pre;&quot;&gt;&lt;span style=&quot;color: #9cdcfe;&quot;&gt;dist&lt;/span&gt;.&lt;span style=&quot;color: #dcdcaa;&quot;&gt;init_distributed&lt;/span&gt;&lt;/div&gt;&lt;/div&gt;" style="whiteSpace=wrap;html=1;rounded=1;" parent="1" vertex="1">
          <mxGeometry x="250" y="270" width="180" height="60" as="geometry" />
        </mxCell>
        <mxCell id="bvu8CrNBLoLt_NtOb05D-20" style="edgeStyle=orthogonalEdgeStyle;rounded=0;orthogonalLoop=1;jettySize=auto;html=1;exitX=0.5;exitY=1;exitDx=0;exitDy=0;entryX=0.5;entryY=0;entryDx=0;entryDy=0;" parent="1" source="bvu8CrNBLoLt_NtOb05D-1" target="bvu8CrNBLoLt_NtOb05D-16" edge="1">
          <mxGeometry relative="1" as="geometry" />
        </mxCell>
        <mxCell id="bvu8CrNBLoLt_NtOb05D-1" value="&lt;div style=&quot;color: rgb(204, 204, 204); background-color: rgb(31, 31, 31); font-family: Consolas, &amp;quot;Courier New&amp;quot;, monospace; font-size: 14px; line-height: 19px; white-space: pre;&quot;&gt;&lt;span style=&quot;color: #4ec9b0;&quot;&gt;DeepSpeedHybridEngine&lt;/span&gt;&lt;/div&gt;" style="whiteSpace=wrap;html=1;rounded=1;" parent="1" vertex="1">
          <mxGeometry x="10" y="500" width="180" height="60" as="geometry" />
        </mxCell>
        <mxCell id="bvu8CrNBLoLt_NtOb05D-4" value="&lt;div style=&quot;color: rgb(204, 204, 204); background-color: rgb(31, 31, 31); font-family: Consolas, &amp;quot;Courier New&amp;quot;, monospace; font-size: 14px; line-height: 19px; white-space: pre;&quot;&gt;&lt;span style=&quot;color: #4ec9b0;&quot;&gt;DeepSpeedEngine&lt;/span&gt;&lt;/div&gt;" style="rounded=1;whiteSpace=wrap;html=1;" parent="1" vertex="1">
          <mxGeometry x="270" y="500" width="140" height="60" as="geometry" />
        </mxCell>
        <mxCell id="bvu8CrNBLoLt_NtOb05D-22" style="edgeStyle=orthogonalEdgeStyle;rounded=0;orthogonalLoop=1;jettySize=auto;html=1;exitX=0.5;exitY=1;exitDx=0;exitDy=0;entryX=0.5;entryY=0;entryDx=0;entryDy=0;" parent="1" source="bvu8CrNBLoLt_NtOb05D-6" target="bvu8CrNBLoLt_NtOb05D-16" edge="1">
          <mxGeometry relative="1" as="geometry" />
        </mxCell>
        <mxCell id="bvu8CrNBLoLt_NtOb05D-6" value="&lt;div style=&quot;color: rgb(204, 204, 204); background-color: rgb(31, 31, 31); font-family: Consolas, &amp;quot;Courier New&amp;quot;, monospace; font-size: 14px; line-height: 19px; white-space: pre;&quot;&gt;&lt;span style=&quot;color: #4ec9b0;&quot;&gt;PipelineEngine&lt;/span&gt;&lt;/div&gt;" style="rounded=1;whiteSpace=wrap;html=1;" parent="1" vertex="1">
          <mxGeometry x="500" y="500" width="120" height="60" as="geometry" />
        </mxCell>
        <mxCell id="bvu8CrNBLoLt_NtOb05D-16" value="Engine" style="swimlane;fontStyle=0;childLayout=stackLayout;horizontal=1;startSize=30;horizontalStack=0;resizeParent=1;resizeParentMax=0;resizeLast=0;collapsible=1;marginBottom=0;whiteSpace=wrap;html=1;" parent="1" vertex="1">
          <mxGeometry x="269" y="635" width="140" height="120" as="geometry" />
        </mxCell>
        <mxCell id="bvu8CrNBLoLt_NtOb05D-17" value="optimizer" style="text;strokeColor=none;fillColor=none;align=left;verticalAlign=middle;spacingLeft=4;spacingRight=4;overflow=hidden;points=[[0,0.5],[1,0.5]];portConstraint=eastwest;rotatable=0;whiteSpace=wrap;html=1;" parent="bvu8CrNBLoLt_NtOb05D-16" vertex="1">
          <mxGeometry y="30" width="140" height="30" as="geometry" />
        </mxCell>
        <mxCell id="bvu8CrNBLoLt_NtOb05D-18" value="data_loader" style="text;strokeColor=none;fillColor=none;align=left;verticalAlign=middle;spacingLeft=4;spacingRight=4;overflow=hidden;points=[[0,0.5],[1,0.5]];portConstraint=eastwest;rotatable=0;whiteSpace=wrap;html=1;" parent="bvu8CrNBLoLt_NtOb05D-16" vertex="1">
          <mxGeometry y="60" width="140" height="30" as="geometry" />
        </mxCell>
        <mxCell id="bvu8CrNBLoLt_NtOb05D-19" value="lr_scheduler" style="text;strokeColor=none;fillColor=none;align=left;verticalAlign=middle;spacingLeft=4;spacingRight=4;overflow=hidden;points=[[0,0.5],[1,0.5]];portConstraint=eastwest;rotatable=0;whiteSpace=wrap;html=1;" parent="bvu8CrNBLoLt_NtOb05D-16" vertex="1">
          <mxGeometry y="90" width="140" height="30" as="geometry" />
        </mxCell>
        <mxCell id="bvu8CrNBLoLt_NtOb05D-24" style="edgeStyle=orthogonalEdgeStyle;rounded=0;orthogonalLoop=1;jettySize=auto;html=1;exitX=0.5;exitY=1;exitDx=0;exitDy=0;entryX=0.514;entryY=0.058;entryDx=0;entryDy=0;entryPerimeter=0;" parent="1" source="bvu8CrNBLoLt_NtOb05D-4" target="bvu8CrNBLoLt_NtOb05D-16" edge="1">
          <mxGeometry relative="1" as="geometry" />
        </mxCell>
        <mxCell id="lRAmw5FP0DqjBfPE-mZ1-3" style="edgeStyle=orthogonalEdgeStyle;rounded=0;orthogonalLoop=1;jettySize=auto;html=1;exitX=0.5;exitY=1;exitDx=0;exitDy=0;entryX=0.5;entryY=0;entryDx=0;entryDy=0;" parent="1" source="lRAmw5FP0DqjBfPE-mZ1-1" target="bvu8CrNBLoLt_NtOb05D-4" edge="1">
          <mxGeometry relative="1" as="geometry" />
        </mxCell>
        <mxCell id="lRAmw5FP0DqjBfPE-mZ1-4" style="edgeStyle=orthogonalEdgeStyle;rounded=0;orthogonalLoop=1;jettySize=auto;html=1;exitX=0.5;exitY=1;exitDx=0;exitDy=0;entryX=0.5;entryY=0;entryDx=0;entryDy=0;" parent="1" source="lRAmw5FP0DqjBfPE-mZ1-1" target="bvu8CrNBLoLt_NtOb05D-1" edge="1">
          <mxGeometry relative="1" as="geometry" />
        </mxCell>
        <mxCell id="lRAmw5FP0DqjBfPE-mZ1-5" style="edgeStyle=orthogonalEdgeStyle;rounded=0;orthogonalLoop=1;jettySize=auto;html=1;exitX=0.5;exitY=1;exitDx=0;exitDy=0;entryX=0.5;entryY=0;entryDx=0;entryDy=0;" parent="1" source="lRAmw5FP0DqjBfPE-mZ1-1" target="bvu8CrNBLoLt_NtOb05D-6" edge="1">
          <mxGeometry relative="1" as="geometry" />
        </mxCell>
        <mxCell id="lRAmw5FP0DqjBfPE-mZ1-1" value="创建config类&lt;div&gt;&lt;div style=&quot;color: rgb(204, 204, 204); background-color: rgb(31, 31, 31); font-family: Consolas, &amp;quot;Courier New&amp;quot;, monospace; font-size: 14px; line-height: 19px; white-space: pre;&quot;&gt;DeepSpeedConfig&lt;/div&gt;&lt;/div&gt;" style="rounded=1;whiteSpace=wrap;html=1;" parent="1" vertex="1">
          <mxGeometry x="270" y="370" width="140" height="60" as="geometry" />
        </mxCell>
        <mxCell id="fVVtAkTKXguPDx4WUdyS-1" value="" style="shape=curlyBracket;whiteSpace=wrap;html=1;rounded=1;flipH=1;labelPosition=right;verticalLabelPosition=middle;align=left;verticalAlign=middle;" parent="1" vertex="1">
          <mxGeometry x="50" y="340" width="20" height="120" as="geometry" />
        </mxCell>
        <mxCell id="fVVtAkTKXguPDx4WUdyS-2" style="edgeStyle=orthogonalEdgeStyle;rounded=0;orthogonalLoop=1;jettySize=auto;html=1;exitX=0;exitY=0.5;exitDx=0;exitDy=0;entryX=0.1;entryY=0.5;entryDx=0;entryDy=0;entryPerimeter=0;" parent="1" source="lRAmw5FP0DqjBfPE-mZ1-1" target="fVVtAkTKXguPDx4WUdyS-1" edge="1">
          <mxGeometry relative="1" as="geometry" />
        </mxCell>
        <mxCell id="fVVtAkTKXguPDx4WUdyS-3" value="param_config" style="rounded=1;whiteSpace=wrap;html=1;" parent="1" vertex="1">
          <mxGeometry x="-80" y="320" width="120" height="30" as="geometry" />
        </mxCell>
        <mxCell id="fVVtAkTKXguPDx4WUdyS-4" value="&lt;div&gt;&lt;font face=&quot;Consolas, Courier New, monospace&quot;&gt;&lt;span style=&quot;font-size: 14px; white-space: pre; background-color: rgb(31, 31, 31);&quot;&gt;动态可扩展训练&lt;/span&gt;&lt;/font&gt;&lt;/div&gt;&lt;span style=&quot;background-color: rgb(31, 31, 31); font-family: Consolas, &amp;quot;Courier New&amp;quot;, monospace; font-size: 14px; white-space: pre;&quot;&gt;elasticity_enabled&lt;/span&gt;" style="rounded=1;whiteSpace=wrap;html=1;" parent="1" vertex="1">
          <mxGeometry x="-130" y="370" width="170" height="45" as="geometry" />
        </mxCell>
        <mxCell id="fVVtAkTKXguPDx4WUdyS-5" value="其余配置初始化" style="rounded=0;whiteSpace=wrap;html=1;" parent="1" vertex="1">
          <mxGeometry x="-80" y="440" width="120" height="30" as="geometry" />
        </mxCell>
      </root>
    </mxGraphModel>
  </diagram>
  <diagram id="nMjO9gPXKdpjBHRSIUHZ" name="初始化通信进程">
    <mxGraphModel dx="2267" dy="857" grid="1" gridSize="10" guides="1" tooltips="1" connect="1" arrows="1" fold="1" page="1" pageScale="1" pageWidth="827" pageHeight="1169" math="0" shadow="0">
      <root>
        <mxCell id="0" />
        <mxCell id="1" parent="0" />
        <mxCell id="6yTQ16-7wosmkpgVH5Bp-3" value="" style="edgeStyle=orthogonalEdgeStyle;rounded=0;orthogonalLoop=1;jettySize=auto;html=1;" parent="1" source="6yTQ16-7wosmkpgVH5Bp-1" target="6yTQ16-7wosmkpgVH5Bp-2" edge="1">
          <mxGeometry relative="1" as="geometry" />
        </mxCell>
        <mxCell id="6yTQ16-7wosmkpgVH5Bp-1" value="初始化通信backend&lt;div&gt;&lt;div style=&quot;color: rgb(204, 204, 204); background-color: rgb(31, 31, 31); font-family: Consolas, &amp;quot;Courier New&amp;quot;, monospace; font-size: 14px; line-height: 19px; white-space: pre;&quot;&gt;init_deepspeed_backend&lt;/div&gt;&lt;/div&gt;" style="rounded=1;whiteSpace=wrap;html=1;" parent="1" vertex="1">
          <mxGeometry x="310" y="370" width="190" height="60" as="geometry" />
        </mxCell>
        <mxCell id="6yTQ16-7wosmkpgVH5Bp-11" style="edgeStyle=orthogonalEdgeStyle;rounded=0;orthogonalLoop=1;jettySize=auto;html=1;exitX=0.5;exitY=1;exitDx=0;exitDy=0;entryX=0.5;entryY=0;entryDx=0;entryDy=0;" parent="1" source="6yTQ16-7wosmkpgVH5Bp-2" target="6yTQ16-7wosmkpgVH5Bp-10" edge="1">
          <mxGeometry relative="1" as="geometry" />
        </mxCell>
        <mxCell id="6yTQ16-7wosmkpgVH5Bp-19" style="edgeStyle=orthogonalEdgeStyle;rounded=0;orthogonalLoop=1;jettySize=auto;html=1;exitX=0.5;exitY=1;exitDx=0;exitDy=0;entryX=0.5;entryY=0;entryDx=0;entryDy=0;" parent="1" source="6yTQ16-7wosmkpgVH5Bp-2" target="6yTQ16-7wosmkpgVH5Bp-18" edge="1">
          <mxGeometry relative="1" as="geometry" />
        </mxCell>
        <mxCell id="6yTQ16-7wosmkpgVH5Bp-2" value="设置通信backend&lt;div&gt;&lt;div style=&quot;color: rgb(204, 204, 204); background-color: rgb(31, 31, 31); font-family: Consolas, &amp;quot;Courier New&amp;quot;, monospace; font-size: 14px; line-height: 19px; white-space: pre;&quot;&gt;set_backend&lt;/div&gt;&lt;/div&gt;" style="whiteSpace=wrap;html=1;rounded=1;" parent="1" vertex="1">
          <mxGeometry x="345" y="510" width="120" height="60" as="geometry" />
        </mxCell>
        <mxCell id="6yTQ16-7wosmkpgVH5Bp-5" value="" style="edgeStyle=orthogonalEdgeStyle;rounded=0;orthogonalLoop=1;jettySize=auto;html=1;dashed=1;" parent="1" source="6yTQ16-7wosmkpgVH5Bp-4" target="6yTQ16-7wosmkpgVH5Bp-1" edge="1">
          <mxGeometry relative="1" as="geometry" />
        </mxCell>
        <mxCell id="6yTQ16-7wosmkpgVH5Bp-4" value="无任何作用，仅打日志" style="text;html=1;align=center;verticalAlign=middle;whiteSpace=wrap;rounded=0;fillColor=#a0522d;fontColor=#ffffff;strokeColor=#6D1F00;fontStyle=1;fontSize=14;" parent="1" vertex="1">
          <mxGeometry x="80" y="385" width="170" height="30" as="geometry" />
        </mxCell>
        <mxCell id="6yTQ16-7wosmkpgVH5Bp-7" value="" style="edgeStyle=orthogonalEdgeStyle;rounded=0;orthogonalLoop=1;jettySize=auto;html=1;dashed=1;" parent="1" source="6yTQ16-7wosmkpgVH5Bp-6" target="6yTQ16-7wosmkpgVH5Bp-2" edge="1">
          <mxGeometry relative="1" as="geometry" />
        </mxCell>
        <mxCell id="6yTQ16-7wosmkpgVH5Bp-6" value="global参数未初始化，设置不成功" style="text;html=1;align=center;verticalAlign=middle;whiteSpace=wrap;rounded=0;fillColor=#a0522d;fontColor=#ffffff;strokeColor=#6D1F00;fontStyle=1;fontSize=14;" parent="1" vertex="1">
          <mxGeometry x="55" y="525" width="220" height="30" as="geometry" />
        </mxCell>
        <mxCell id="6yTQ16-7wosmkpgVH5Bp-13" style="edgeStyle=orthogonalEdgeStyle;rounded=0;orthogonalLoop=1;jettySize=auto;html=1;exitX=0.5;exitY=1;exitDx=0;exitDy=0;entryX=0.5;entryY=0;entryDx=0;entryDy=0;" parent="1" source="6yTQ16-7wosmkpgVH5Bp-10" target="6yTQ16-7wosmkpgVH5Bp-12" edge="1">
          <mxGeometry relative="1" as="geometry" />
        </mxCell>
        <mxCell id="6yTQ16-7wosmkpgVH5Bp-15" style="edgeStyle=orthogonalEdgeStyle;rounded=0;orthogonalLoop=1;jettySize=auto;html=1;exitX=0.5;exitY=1;exitDx=0;exitDy=0;entryX=0.5;entryY=0;entryDx=0;entryDy=0;" parent="1" source="6yTQ16-7wosmkpgVH5Bp-10" target="6yTQ16-7wosmkpgVH5Bp-14" edge="1">
          <mxGeometry relative="1" as="geometry" />
        </mxCell>
        <mxCell id="6yTQ16-7wosmkpgVH5Bp-17" style="edgeStyle=orthogonalEdgeStyle;rounded=0;orthogonalLoop=1;jettySize=auto;html=1;exitX=0.5;exitY=1;exitDx=0;exitDy=0;entryX=0.5;entryY=0;entryDx=0;entryDy=0;" parent="1" source="6yTQ16-7wosmkpgVH5Bp-10" target="6yTQ16-7wosmkpgVH5Bp-16" edge="1">
          <mxGeometry relative="1" as="geometry" />
        </mxCell>
        <mxCell id="6yTQ16-7wosmkpgVH5Bp-10" value="MPI通信" style="rounded=1;whiteSpace=wrap;html=1;" parent="1" vertex="1">
          <mxGeometry x="80" y="650" width="120" height="60" as="geometry" />
        </mxCell>
        <mxCell id="6yTQ16-7wosmkpgVH5Bp-12" value="&lt;div style=&quot;background-color: rgb(31, 31, 31); font-family: Consolas, &amp;quot;Courier New&amp;quot;, monospace; font-size: 14px; line-height: 19px; white-space: pre;&quot;&gt;设置环境变量&lt;/div&gt;&lt;div style=&quot;background-color: rgb(31, 31, 31); font-family: Consolas, &amp;quot;Courier New&amp;quot;, monospace; font-size: 14px; line-height: 19px; white-space: pre;&quot;&gt;Azure&lt;/div&gt;" style="rounded=1;whiteSpace=wrap;html=1;" parent="1" vertex="1">
          <mxGeometry x="-80" y="780" width="120" height="60" as="geometry" />
        </mxCell>
        <mxCell id="6yTQ16-7wosmkpgVH5Bp-14" value="&lt;div style=&quot;background-color: rgb(31, 31, 31); font-family: Consolas, &amp;quot;Courier New&amp;quot;, monospace; font-size: 14px; line-height: 19px; white-space: pre;&quot;&gt;设置环境变量&lt;/div&gt;&lt;div style=&quot;background-color: rgb(31, 31, 31); font-family: Consolas, &amp;quot;Courier New&amp;quot;, monospace; font-size: 14px; line-height: 19px; white-space: pre;&quot;&gt;AWS&lt;/div&gt;" style="rounded=1;whiteSpace=wrap;html=1;" parent="1" vertex="1">
          <mxGeometry x="80" y="780" width="120" height="60" as="geometry" />
        </mxCell>
        <mxCell id="6yTQ16-7wosmkpgVH5Bp-16" value="&lt;div style=&quot;background-color: rgb(31, 31, 31); font-family: Consolas, &amp;quot;Courier New&amp;quot;, monospace; font-size: 14px; line-height: 19px; white-space: pre;&quot;&gt;MPI环境变量&lt;/div&gt;" style="rounded=1;whiteSpace=wrap;html=1;" parent="1" vertex="1">
          <mxGeometry x="230" y="780" width="120" height="60" as="geometry" />
        </mxCell>
        <mxCell id="6yTQ16-7wosmkpgVH5Bp-23" value="" style="edgeStyle=orthogonalEdgeStyle;rounded=0;orthogonalLoop=1;jettySize=auto;html=1;" parent="1" source="6yTQ16-7wosmkpgVH5Bp-18" target="6yTQ16-7wosmkpgVH5Bp-22" edge="1">
          <mxGeometry relative="1" as="geometry" />
        </mxCell>
        <mxCell id="6yTQ16-7wosmkpgVH5Bp-18" value="真正创建通信后端&lt;div&gt;&lt;div style=&quot;color: rgb(204, 204, 204); background-color: rgb(31, 31, 31); font-family: Consolas, &amp;quot;Courier New&amp;quot;, monospace; font-size: 14px; line-height: 19px; white-space: pre;&quot;&gt;TorchBackend&lt;/div&gt;&lt;/div&gt;" style="rounded=1;whiteSpace=wrap;html=1;" parent="1" vertex="1">
          <mxGeometry x="345" y="920" width="120" height="60" as="geometry" />
        </mxCell>
        <mxCell id="6yTQ16-7wosmkpgVH5Bp-21" style="edgeStyle=orthogonalEdgeStyle;rounded=0;orthogonalLoop=1;jettySize=auto;html=1;exitX=0.1;exitY=0.5;exitDx=0;exitDy=0;exitPerimeter=0;entryX=0;entryY=0.5;entryDx=0;entryDy=0;" parent="1" source="6yTQ16-7wosmkpgVH5Bp-20" target="6yTQ16-7wosmkpgVH5Bp-18" edge="1">
          <mxGeometry relative="1" as="geometry">
            <Array as="points">
              <mxPoint x="140" y="950" />
            </Array>
          </mxGeometry>
        </mxCell>
        <mxCell id="6yTQ16-7wosmkpgVH5Bp-20" value="" style="shape=curlyBracket;whiteSpace=wrap;html=1;rounded=1;labelPosition=left;verticalLabelPosition=middle;align=right;verticalAlign=middle;rotation=270;" parent="1" vertex="1">
          <mxGeometry x="120" y="730" width="40" height="300" as="geometry" />
        </mxCell>
        <mxCell id="6yTQ16-7wosmkpgVH5Bp-25" value="" style="edgeStyle=orthogonalEdgeStyle;rounded=0;orthogonalLoop=1;jettySize=auto;html=1;" parent="1" source="6yTQ16-7wosmkpgVH5Bp-22" target="6yTQ16-7wosmkpgVH5Bp-24" edge="1">
          <mxGeometry relative="1" as="geometry" />
        </mxCell>
        <mxCell id="6yTQ16-7wosmkpgVH5Bp-22" value="创建通信算子" style="whiteSpace=wrap;html=1;rounded=1;" parent="1" vertex="1">
          <mxGeometry x="345" y="1060" width="120" height="60" as="geometry" />
        </mxCell>
        <mxCell id="6yTQ16-7wosmkpgVH5Bp-27" value="" style="edgeStyle=orthogonalEdgeStyle;rounded=0;orthogonalLoop=1;jettySize=auto;html=1;" parent="1" source="6yTQ16-7wosmkpgVH5Bp-24" target="6yTQ16-7wosmkpgVH5Bp-26" edge="1">
          <mxGeometry relative="1" as="geometry" />
        </mxCell>
        <mxCell id="6yTQ16-7wosmkpgVH5Bp-24" value="c初始化通信进程组&lt;div&gt;&lt;div style=&quot;color: rgb(204, 204, 204); background-color: rgb(31, 31, 31); font-family: Consolas, &amp;quot;Courier New&amp;quot;, monospace; font-size: 14px; line-height: 19px; white-space: pre;&quot;&gt;init_process_group&lt;/div&gt;&lt;/div&gt;" style="whiteSpace=wrap;html=1;rounded=1;" parent="1" vertex="1">
          <mxGeometry x="327.5" y="1180" width="155" height="60" as="geometry" />
        </mxCell>
        <mxCell id="6yTQ16-7wosmkpgVH5Bp-26" value="&lt;div style=&quot;color: #cccccc;background-color: #1f1f1f;font-family: Consolas, &#39;Courier New&#39;, monospace;font-weight: normal;font-size: 14px;line-height: 19px;white-space: pre;&quot;&gt;&lt;div&gt;&lt;span style=&quot;color: #cccccc;&quot;&gt;torch.distributed.init_process_group&lt;/span&gt;&lt;/div&gt;&lt;/div&gt;" style="whiteSpace=wrap;html=1;rounded=1;" parent="1" vertex="1">
          <mxGeometry x="252.5" y="1320" width="305" height="60" as="geometry" />
        </mxCell>
      </root>
    </mxGraphModel>
  </diagram>
  <diagram id="P7HcVo1f3Bod62wIZJnI" name="DeepSpeedEngine">
    <mxGraphModel dx="2655" dy="744" grid="1" gridSize="10" guides="1" tooltips="1" connect="1" arrows="1" fold="1" page="1" pageScale="1" pageWidth="827" pageHeight="1169" math="0" shadow="0">
      <root>
        <mxCell id="0" />
        <mxCell id="1" parent="0" />
        <mxCell id="l43oHyhwshicnYCLv0Py-3" value="" style="edgeStyle=orthogonalEdgeStyle;rounded=0;orthogonalLoop=1;jettySize=auto;html=1;" parent="1" source="l43oHyhwshicnYCLv0Py-1" target="l43oHyhwshicnYCLv0Py-2" edge="1">
          <mxGeometry relative="1" as="geometry" />
        </mxCell>
        <mxCell id="l43oHyhwshicnYCLv0Py-1" value="获取进程组相关id&lt;div&gt;device/world_size/global_rank&lt;/div&gt;" style="rounded=1;whiteSpace=wrap;html=1;" parent="1" vertex="1">
          <mxGeometry x="280" y="90" width="220" height="60" as="geometry" />
        </mxCell>
        <mxCell id="l43oHyhwshicnYCLv0Py-5" value="" style="edgeStyle=orthogonalEdgeStyle;rounded=0;orthogonalLoop=1;jettySize=auto;html=1;" parent="1" source="l43oHyhwshicnYCLv0Py-2" target="l43oHyhwshicnYCLv0Py-4" edge="1">
          <mxGeometry relative="1" as="geometry" />
        </mxCell>
        <mxCell id="l43oHyhwshicnYCLv0Py-2" value="配置日志信息&lt;div&gt;&lt;div style=&quot;color: rgb(204, 204, 204); background-color: rgb(31, 31, 31); font-family: Consolas, &amp;quot;Courier New&amp;quot;, monospace; font-size: 14px; line-height: 19px; white-space: pre;&quot;&gt;&lt;span style=&quot;color: #4ec9b0;&quot;&gt;dist&lt;/span&gt;.&lt;span style=&quot;color: #dcdcaa;&quot;&gt;configure&lt;/span&gt;&lt;/div&gt;&lt;/div&gt;" style="whiteSpace=wrap;html=1;rounded=1;" parent="1" vertex="1">
          <mxGeometry x="330" y="200" width="120" height="60" as="geometry" />
        </mxCell>
        <mxCell id="_rezS92-L02Tb0f8z7KF-2" value="" style="edgeStyle=orthogonalEdgeStyle;rounded=0;orthogonalLoop=1;jettySize=auto;html=1;" parent="1" source="l43oHyhwshicnYCLv0Py-4" target="_rezS92-L02Tb0f8z7KF-1" edge="1">
          <mxGeometry relative="1" as="geometry" />
        </mxCell>
        <mxCell id="l43oHyhwshicnYCLv0Py-4" value="数据监控，如tensorboard&lt;div&gt;&lt;div style=&quot;color: rgb(204, 204, 204); background-color: rgb(31, 31, 31); font-family: Consolas, &amp;quot;Courier New&amp;quot;, monospace; font-size: 14px; line-height: 19px; white-space: pre;&quot;&gt;&lt;span style=&quot;color: #4ec9b0;&quot;&gt;MonitorMaster&lt;/span&gt;&lt;/div&gt;&lt;/div&gt;" style="whiteSpace=wrap;html=1;rounded=1;" parent="1" vertex="1">
          <mxGeometry x="300" y="310" width="180" height="60" as="geometry" />
        </mxCell>
        <mxCell id="_rezS92-L02Tb0f8z7KF-24" style="edgeStyle=orthogonalEdgeStyle;rounded=0;orthogonalLoop=1;jettySize=auto;html=1;exitX=0.5;exitY=1;exitDx=0;exitDy=0;entryX=0.5;entryY=0;entryDx=0;entryDy=0;" parent="1" source="_rezS92-L02Tb0f8z7KF-1" target="_rezS92-L02Tb0f8z7KF-13" edge="1">
          <mxGeometry relative="1" as="geometry" />
        </mxCell>
        <mxCell id="_rezS92-L02Tb0f8z7KF-1" value="传入的model死否是PipelineModule" style="whiteSpace=wrap;html=1;rounded=1;" parent="1" vertex="1">
          <mxGeometry x="290" y="430" width="200" height="40" as="geometry" />
        </mxCell>
        <mxCell id="_rezS92-L02Tb0f8z7KF-28" value="" style="edgeStyle=orthogonalEdgeStyle;rounded=0;orthogonalLoop=1;jettySize=auto;html=1;" parent="1" source="_rezS92-L02Tb0f8z7KF-13" target="_rezS92-L02Tb0f8z7KF-27" edge="1">
          <mxGeometry relative="1" as="geometry" />
        </mxCell>
        <mxCell id="_rezS92-L02Tb0f8z7KF-13" value="配置分布式模型&lt;div&gt;&lt;div style=&quot;color: rgb(204, 204, 204); background-color: rgb(31, 31, 31); font-family: Consolas, &amp;quot;Courier New&amp;quot;, monospace; font-size: 14px; line-height: 19px; white-space: pre;&quot;&gt;&lt;span style=&quot;color: #dcdcaa;&quot;&gt;_configure_distributed_model&lt;/span&gt;&lt;/div&gt;&lt;/div&gt;" style="whiteSpace=wrap;html=1;rounded=1;" parent="1" vertex="1">
          <mxGeometry x="270" y="530" width="240" height="60" as="geometry" />
        </mxCell>
        <mxCell id="_rezS92-L02Tb0f8z7KF-22" value="" style="shape=curlyBracket;whiteSpace=wrap;html=1;rounded=1;flipH=1;labelPosition=right;verticalLabelPosition=middle;align=left;verticalAlign=middle;size=0.5;" parent="1" vertex="1">
          <mxGeometry x="190" y="335" width="70" height="475" as="geometry" />
        </mxCell>
        <mxCell id="_rezS92-L02Tb0f8z7KF-25" value="" style="group" parent="1" vertex="1" connectable="0">
          <mxGeometry x="-1310" y="310" width="1495" height="580" as="geometry" />
        </mxCell>
        <mxCell id="_rezS92-L02Tb0f8z7KF-23" style="edgeStyle=orthogonalEdgeStyle;rounded=0;orthogonalLoop=1;jettySize=auto;html=1;exitX=0;exitY=0.5;exitDx=0;exitDy=0;entryX=1;entryY=0.5;entryDx=0;entryDy=0;" parent="_rezS92-L02Tb0f8z7KF-25" source="_rezS92-L02Tb0f8z7KF-3" target="_rezS92-L02Tb0f8z7KF-5" edge="1">
          <mxGeometry relative="1" as="geometry" />
        </mxCell>
        <mxCell id="_rezS92-L02Tb0f8z7KF-3" value="DeepspeedEngine和model关联&lt;div&gt;&lt;div style=&quot;color: rgb(204, 204, 204); background-color: rgb(31, 31, 31); font-family: Consolas, &amp;quot;Courier New&amp;quot;, monospace; font-size: 14px; line-height: 19px; white-space: pre;&quot;&gt;&lt;span style=&quot;color: #569cd6;&quot;&gt;self&lt;/span&gt;._set_client_model(model)&lt;/div&gt;&lt;/div&gt;" style="whiteSpace=wrap;html=1;rounded=1;" parent="_rezS92-L02Tb0f8z7KF-25" vertex="1">
          <mxGeometry x="1185" width="300" height="60" as="geometry" />
        </mxCell>
        <mxCell id="_rezS92-L02Tb0f8z7KF-5" value="self.module = model" style="rounded=1;whiteSpace=wrap;html=1;" parent="_rezS92-L02Tb0f8z7KF-25" vertex="1">
          <mxGeometry x="1015" width="130" height="60" as="geometry" />
        </mxCell>
        <mxCell id="_rezS92-L02Tb0f8z7KF-6" value="模型参数dtype转化" style="rounded=1;whiteSpace=wrap;html=1;" parent="_rezS92-L02Tb0f8z7KF-25" vertex="1">
          <mxGeometry x="1350" y="120" width="120" height="60" as="geometry" />
        </mxCell>
        <mxCell id="_rezS92-L02Tb0f8z7KF-7" value="to(device)" style="rounded=1;whiteSpace=wrap;html=1;" parent="_rezS92-L02Tb0f8z7KF-25" vertex="1">
          <mxGeometry x="1350" y="200" width="120" height="60" as="geometry" />
        </mxCell>
        <mxCell id="_rezS92-L02Tb0f8z7KF-8" value="MoeLayer/TopKGate记录" style="rounded=1;whiteSpace=wrap;html=1;" parent="_rezS92-L02Tb0f8z7KF-25" vertex="1">
          <mxGeometry x="1350" y="290" width="120" height="60" as="geometry" />
        </mxCell>
        <mxCell id="_rezS92-L02Tb0f8z7KF-9" value="mpu关联到groups" style="rounded=1;whiteSpace=wrap;html=1;" parent="_rezS92-L02Tb0f8z7KF-25" vertex="1">
          <mxGeometry x="1345" y="380" width="120" height="60" as="geometry" />
        </mxCell>
        <mxCell id="_rezS92-L02Tb0f8z7KF-10" value="expert_layer的groups并行通信组创建&lt;div&gt;&lt;div style=&quot;color: rgb(204, 204, 204); background-color: rgb(31, 31, 31); font-family: Consolas, &amp;quot;Courier New&amp;quot;, monospace; font-size: 14px; line-height: 19px; white-space: pre;&quot;&gt;set_deepspeed_parallelism&lt;/div&gt;&lt;/div&gt;" style="rounded=1;whiteSpace=wrap;html=1;" parent="_rezS92-L02Tb0f8z7KF-25" vertex="1">
          <mxGeometry x="1265" y="470" width="230" height="60" as="geometry" />
        </mxCell>
        <mxCell id="_rezS92-L02Tb0f8z7KF-15" value="&lt;div style=&quot;color: rgb(204, 204, 204); background-color: rgb(31, 31, 31); font-family: Consolas, &amp;quot;Courier New&amp;quot;, monospace; font-size: 14px; line-height: 19px; white-space: pre;&quot;&gt;groups._create_expert_and_data_parallel&lt;/div&gt;" style="rounded=1;whiteSpace=wrap;html=1;" parent="_rezS92-L02Tb0f8z7KF-25" vertex="1">
          <mxGeometry x="855" y="430" width="340" height="60" as="geometry" />
        </mxCell>
        <mxCell id="_rezS92-L02Tb0f8z7KF-16" value="&lt;div style=&quot;color: rgb(204, 204, 204); background-color: rgb(31, 31, 31); font-family: Consolas, &amp;quot;Courier New&amp;quot;, monospace; font-size: 14px; line-height: 19px; white-space: pre;&quot;&gt;deepspeed_moe._set_ep_group&lt;/div&gt;" style="rounded=1;whiteSpace=wrap;html=1;" parent="_rezS92-L02Tb0f8z7KF-25" vertex="1">
          <mxGeometry x="955" y="520" width="240" height="60" as="geometry" />
        </mxCell>
        <mxCell id="_rezS92-L02Tb0f8z7KF-17" value="" style="shape=curlyBracket;whiteSpace=wrap;html=1;rounded=1;flipH=1;labelPosition=right;verticalLabelPosition=middle;align=left;verticalAlign=middle;size=0.5;" parent="_rezS92-L02Tb0f8z7KF-25" vertex="1">
          <mxGeometry x="1215" y="450" width="60" height="120" as="geometry" />
        </mxCell>
        <mxCell id="_rezS92-L02Tb0f8z7KF-18" value="&lt;div style=&quot;color: rgb(204, 204, 204); background-color: rgb(31, 31, 31); font-family: Consolas, &amp;quot;Courier New&amp;quot;, monospace; font-size: 14px; line-height: 19px; white-space: pre;&quot;&gt;_EXPERT_DATA_PARALLEL_GROUP分组&lt;/div&gt;" style="rounded=1;whiteSpace=wrap;html=1;" parent="_rezS92-L02Tb0f8z7KF-25" vertex="1">
          <mxGeometry x="515" y="380" width="270" height="60" as="geometry" />
        </mxCell>
        <mxCell id="_rezS92-L02Tb0f8z7KF-19" value="&lt;div style=&quot;color: rgb(204, 204, 204); background-color: rgb(31, 31, 31); font-family: Consolas, &amp;quot;Courier New&amp;quot;, monospace; font-size: 14px; line-height: 19px; white-space: pre;&quot;&gt;_EXPERT_PARALLEL_GROUP分组&lt;/div&gt;" style="rounded=1;whiteSpace=wrap;html=1;" parent="_rezS92-L02Tb0f8z7KF-25" vertex="1">
          <mxGeometry x="515" y="470" width="270" height="60" as="geometry" />
        </mxCell>
        <mxCell id="_rezS92-L02Tb0f8z7KF-20" value="" style="shape=curlyBracket;whiteSpace=wrap;html=1;rounded=1;flipH=1;labelPosition=right;verticalLabelPosition=middle;align=left;verticalAlign=middle;" parent="_rezS92-L02Tb0f8z7KF-25" vertex="1">
          <mxGeometry x="805" y="400" width="40" height="120" as="geometry" />
        </mxCell>
        <mxCell id="_rezS92-L02Tb0f8z7KF-21" value="" style="shape=image;verticalLabelPosition=bottom;labelBackgroundColor=default;verticalAlign=top;aspect=fixed;imageAspect=0;image=data:image/png,iVBORw0KGgoAAAANSUhEUgAABIYAAAD/CAYAAACEjd0aAAAgAElEQVR4Ae3dTZLrOraeYbXvLDwNDsBt992tYNzYd4cjjs9E1M3wFKrhlmbiljpnJnCAEheBxcWPYP5oMxNvRexKJBZFgg8/lSAUpbz8x3/8R8r//vM//9f0c/6dnw+X2QGf2mN2mX/ig8+chff8JD/k5z25mR9DfsjPnIX3/Pz3v/+d/vWvf/FvwyD7vMe1l8fwvz/8789Hsk5+yA/50RnA53U+lxn7v/7rf/PC/1wkm03Kn/joUOKDT/l8OdomP+TnaGbK7ckP+SnzcLT93/7+74l/2uCoaU/b878//O/PR/JOfsgP+dEZwOd1Ppdfv/5Kv3//nd7e3viHARkgA2SADJABMtBVBlgU0otC2Yc5InNkMkAGyAAZIAM/OwN2x1C+0PwHAQQQQACB7ybwzz//fLchv3S8+GhufPDRArpKfvDRArpKfvDRArpKfvDRArrq88PCkPaiigACCCBwcgH/wnby4b58ePhocnzw0QK6Sn7w0QK6Sn7w0QK6Sn7w0QK66vPDwpD2oooAAgggcHIB/8J28uG+fHj4aHJ88NECukp+8NECukp+8NECukp+8NECuurzw8KQ9qKKAAIIIHByAf/CdvLhvnx4+GhyfPDRArpKfvDRArpKfvDRArpKfvDRArrq88PCkPaiigACCCBwcgH/wnby4b58ePhocnzw0QK6Sn7w0QK6Sn7w0QK6Sn7w0QK66vPDwpD2oooAAgggcHIB/8J28uG+fHj4aHJ88NECukp+8NECukp+8NECukp+8NECuurzw8KQ9qKKAAIIIHByAf/CdvLhvnx4+GhyfPDRArpKfvDRArpKfvDRArpKfvDRArrq88PCkPaiigACCCBwcgH/wnby4b58ePhocnzw0QK6Sn7w0QK6Sn7w0QK6Sn7w0QK66vPDwpD2oooAAgggcHIB/8J28uG+fHj4aHJ88NECukp+8NECukp+8NECukp+8NECuurzs7kwdBsv6TJc0z3a321Ml/FWV+63NA5Dulwuz39DGm/1o6d9Wj3vf0zLJvd0HS7J73Y6yP2ahnIs07Hm41zSMG6Msx5h8Ns9XcdlzO/fT7BruhBAAAEEXiLgX9hectBvdBB89MXCBx8toKvkBx8toKvkBx8toKvkBx8toKs+P3JhaBiGNFzrxZ1p935hKC/cXNxC0HPxpnx8XhgqF37ueT+XMT2WmFoXhp7b2bju6XYd1gtV2uF5Gpfi/B77GcoBNuyDTRBAAAEE/qyAf2H7s6M539Hx0dcEH3y0gK6SH3y0gK6SH3y0gK6SH3y0gK76/MiFofH2uAvI1mDmfbuFobzgUy4AzZsld6ePXxjK2y19rQtDtzTaYtJ8pPzY8u6juV/9jPYT9al9UEMAAQQQ+NMC/oXtT4/nbMfHR18RfPDRArpKfvDRArpKfvDRArpKfvDRArrq87OzMDSt3NQf48r7rxaG2hdTlkWgZZBL30cWhpb95db9Oqbpbqd8x5P7N9oqVzTuvBD23o+l1WPgNwQQQACB1wj4F7bXHPX7HAUffa3wwUcL6Cr5wUcL6Cr5wUcL6Cr5wUcL6KrPz/7C0LQOlD8mVuy4XBhydwUVW62ayyLQXCoXg8r2XH/+dMe454+ODWO6Ll9Q5B7Q9mvez3C9Pb9H6flRMls4atsHWyGAAAII/FkB/8L2Z0dzvqPjo68JPvhoAV0lP/hoAV0lP/hoAV0lP/hoAV31+WlaGErJ3V3zSQtDjwWe+Q6d9oWh6RTvt+mLo4fL48un37dGdE+36sun50UijUgVAQQQQOA8Av6F7TwjO8dI8NHXAR98tICukh98tICukh98tICukh98tICu+vw0Lgy5j4/tLAzlO4OWv042f7n04/uElv7L9BG1ZUHn4MJQcZ73W/6rZctxipJo5uPVX5idvwy7+utn4tGUEEAAAQTOIeBf2M4xqvOMAh99LfDBRwvoKvnBRwvoKvnBRwvoKvnBRwvoqs9P+8JQmhdS3CKRv5uoOn59p9H6o2TVxsUXUdf9/kusXXX6tdx303cM5Y+nVZ+Py7t5nCOfJouE6UMAAQTOKeBf2M45yj83Kny0PT74aAFdJT/4aAFdJT/4aAFdJT/4aAFd9fk5sDA0favz486c8o6haZ1o46+SuUWjcvEmGubjO3/uq1LV7449b7y373k7++m+t+jRz8KQ+dBAAAEEvomAf2H7JsN+2TDx0dT44KMFdJX84KMFdJX84KMFdJX84KMFdNXn5/Lr11/p9++/09vbW/XIrYWWaZEm/6Wv6m6bfGdQXhwqv6Pn+f09wzXN31u9tU87cF6suQQf77oMabmL53GscfkMWsofAbus/oS97XWjsbEf/irZhhfdCCCAwDkF8gsb/zAgA2SADJABMkAGyAAZIAPvy8CxO4am9wT5rppLulQLQ/luoseXQS/fIfRYPCrv/9ldGMr7v1/TmPd/ef7L3x1U7mTaJv9Z+XqbZeHowBuX+3o/q2Md2B2bIoAAAgi8XiBPAPjPtgA+2za5gg8+WkBXyQ8+WkBXyQ8+WkBXyQ8+WkBXfX42F4b0bqgigAACCCBwDgH/wnaOUZ1nFPjoa4EPPlpAV8kPPlpAV8kPPlpAV8kPPlpAV31+WBjSXlQRQAABBE4u4F/YTj7clw8PH02ODz5aQFfJDz5aQFfJDz5aQFfJDz5aQFd9flgY0l5UEUAAAQROLuBf2E4+3JcPDx9Njg8+WkBXyQ8+WkBXyQ8+WkBXyQ8+WkBXfX5YGNJeVBFAAAEETi7gX9hOPtyXDw8fTY4PPlpAV8kPPlpAV8kPPlpAV8kPPlpAV31+WBjSXlQRQAABBE4u4F/YTj7clw8PH02ODz5aQFfJDz5aQFfJDz5aQFfJDz5aQFd9flgY0l5UEUAAAQROLuBf2E4+3JcPDx9Njg8+WkBXyQ8+WkBXyQ8+WkBXyQ8+WkBXfX5YGNJeVBFAAAEETi7gX9hOPtyXDw8fTY4PPlpAV8kPPlpAV8kPPlpAV8kPPlpAV31+WBjSXlQRQAABBE4u4F/YTj7clw8PH02ODz5aQFfJDz5aQFfJDz5aQFfJDz5aQFd9fjYXhm7jJV0uxb9hTLf7svO9+rJlS+uebuOQLuOtZWO2QQABBBBAwAT8C5sVaEwC+Ogg4IOPFtBV8oOPFtBV8oOPFtBV8oOPFtBVnx+5MFSu09xvY7pcxjQv3eSFIVXXwyiq91sahyFdryMLQwULTQQQQACBNgH/wtb2qH62wkdfa3zw0QK6Sn7w0QK6Sn7w0QK6Sn7w0QK66vPTvDCUd1suBpXt+ZBR31zb+nm/XR93IuWFp3KlaesB9COAAAIIIFAI+Be2okQzpYSPjgE++GgBXSU/+GgBXSU/+GgBXSU/+GgBXfX5+bKFoft1TMMwhP/Ga/GZtHm8LAzNEvxEAAEEEDgg4F/YDjy0i03x0ZcZH3y0gK6SH3y0gK6SH3y0gK6SH3y0gK76/BxYGLqn67B8fGx9d1Bd18MIqiwMBSh0IYAAAgjsCfgXtr3te6vjo684PvhoAV0lP/hoAV0lP/hoAV0lP/hoAV31+WleGLpfh3QZrmm+18cvDPm6HkZQZWEoQKELAQQQQGBPwL+w7W3fWx0ffcXxwUcL6Cr5wUcL6Cr5wUcL6Cr5wUcL6KrPj1wYKv8q2TA8vwvouf+8MKTqehhBlYWhAIUuBBBAAIE9Af/Ctrd9b3V89BXHBx8toKvkBx8toKvkBx8toKvkBx8toKs+P3JhSH0XtL9jyB+W7xjyIvyOAAIIIPAVAv6F7SuO8Z33iY++evjgowV0lfzgowV0lfzgowV0lfzgowV01efnyxaG9DCCKncMBSh0IYAAAgjsCfgXtr3te6vjo684PvhoAV0lP/hoAV0lP/hoAV0lP/hoAV31+bn8+vVX+v377/T29lY9cu+OoL16tbOWX1gYalFiGwQQQAABJ5Bf2PiHARkgA2SADJABMkAGyAAZeF8G/vAdQ4+/ZFZ+V9GjPaabm/jzKwIIIIAAApFAngDwn20BfLZtcgUffLSArpIffLSArpIffLSArpIffLSArvr8bC4M6d1QRQABBBBA4BwC/oXtHKM6zyjw0dcCH3y0gK6SH3y0gK6SH3y0gK6SH3y0gK76/LAwpL2oIoAAAgicXMC/sJ18uC8fHj6aHB98tICukh98tICukh98tICukh98tICu+vywMKS9qCKAAAIInFzAv7CdfLgvHx4+mhwffLSArpIffLSArpIffLSArpIffLSArvr8sDCkvagigAACCJxcwL+wnXy4Lx8ePpocH3y0gK6SH3y0gK6SH3y0gK6SH3y0gK76/LAwpL2oIoAAAgicXMC/sJ18uC8fHj6aHB98tICukh98tICukh98tICukh98tICu+vywMKS9qCKAAAIInFzAv7CdfLgvHx4+mhwffLSArpIffLSArpIffLSArpIffLSArvr8sDCkvagigAACCJxcwL+wnXy4Lx8ePpocH3y0gK6SH3y0gK6SH3y0gK6SH3y0gK76/LAwpL2oIoAAAgicXMC/sJ18uC8fHj6aHB98tICukh98tICukh98tICukh98tICu+vx804WhWxovY7qpc71f0zBc011t8y1rX33uDfv/BLf7dUhjcAG3+j/hkCfYRYPth3LbsP+XK9zTdRzS5XKZ/g3jT3xOvhyVAzoB/8Lmyt3/io+OAD74aAFdJT/4aAFdJT/4aAFdJT/4aAFd9fk538LQbUzD9ROWcz70Blsj/tlqw5v/05/7PV2HaGFvq//Pin/e0X/CtTumcRsvxfP5nm7XIQ3RiuCx3bI1ApWAf2GrivyS8NEhwAcfLaCr5AcfLaCr5AcfLaCr5AcfLaCrPj+nWxjKd4ywMKQu4g9YXNha/NvqVxzfqvYDrt0h7+h8o75DO2VjBFYC/oVttUHnHfjoAOCDjxbQVfKDjxbQVfKDjxbQVfKDjxbQVZ+fjYWhfOfGkK63axqHx0dA8kdB6o+BtGyzNZh7ulUfL7lNH/nKdxfMHznJPx83FjyPc789xjJ9PMy/uaz3dxnGaez1R8nW29zEjUn365iGYQj/jRt3NOVzqkq3MV3cx9n8NtNxnh+zeRg/LB5yn3Xu0XWoPfJdHA+OwjbfeVSM7XFtynOs95HdlWl9Tn5M87n6/vn3lry1bDPvr/7pr0vi2lVA73k+pFRkyfaWn8d8nMw4aHyKgH9h+5Sd/qCd4KMvJj74aAFdJT/4aAFdJT/4aAFdJT/4aAFd9fnZWBhK6bFIkxeH5tWT5yJA8TGQlm3C4VRvuh/7nXe7vmPo8WZ/GMtFh/oN5zQOW9hIKc0LGsUb0PzGf7jOix8p3W/5O4iijzOFI27rdHe8TMesjlG/Kc7nmheOjDhli0u6zBjpc849HPzmNahtq8fm8/uoab42dn7F3rf6i01a8tayTbHLpcm1+/znw/RULJ93z4+SVaunyyWghcB7BfwL23v381Mfh4++svjgowV0lfzgowV0lfzgowV0lfzgowV01edHLgytP9JVLxrkN+F724TDyYsS0eKAvZGcF6Pyo/PiiD9OOY6yvRxtXnSxu2CKBY15qzz+jWHMmxz7mRc37Dh53NfpO1XsGHnxYfll4wu08/nMd+V8xrlvnMLmNYg9p7s/xCLXfJQ907xYZgTzg1JeiIz7i02mRbO9vL07k1y7yTe6NuU1ON6u7ypb7kw7vicegcCWgH9h29qu13589JXHBx8toKvkBx8toKvkBx8toKvkBx8toKs+P3JhKHqTmN/Az/+H/9YiQLlNPJzHgkf+6NFY3MWTt926Y2g+5mN/xeJF9Ya+OFrZn9urj0Q9/0pSveNiB+9p5vN63oWUj5kB55/PczPTcnzuUItr3t/i/djs4Lm7fS+/bl2DYv+28WMcNvbc/y7T+o4p233+yJEtqC29vrW41JUyby3b1I+ef+PaTR9l/PTnQ17wWxZ67+6us1mfnwh8RMC/sH1kXz/xsfjoq4oPPlpAV8kPPlpAV8kPPlpAV8kPPlpAV31+/tDC0DzI/NGSx3f5zIsOX7Yw1LDwMI8q/3zfd6osd77k83ic07zgMP98HuWPLwzNZ+uvwXphaH1NngtDh03jLxYP9z8Pr/jZsujTsk2xy6o537XEtatYpl/e9XwoFkWXPT4WGT91/WnZOa1OBfwLW6cMm6eNzybNVMAHHy2gq+QHHy2gq+QHHy2gq+QHHy2gqz4/cmHoyz6248dYfKxpvUgQvZEsFy/K9rLjvJ/li5/jbZatP7E1fVfNbblz6Hmn0PXm74rZGlPun+8S+oxzbzw3uwZuXNXH38p9ue3KUth2C2O2zVa/bWCNvOjzpZnk2pn1pzTCxc8o059yNHbSsYB/YeuYIjx1fEIW68THKMIGPiGLdeJjFGEDn5DFOvExirCBT8hinfgYRdjAJ2SxTu9z+fXrr/T799/p7e3NNsqN/Cb8khco7GMg/ouR27apdvr8Zbozw24ZeOx3fsM/LejMtw9N20dvJOtFiWmsxZdPT18snT86VtzR4rdJ0185++Qvn57GmxeAhuK7hCbMx183s3N+QMyLV0a88eXT9cOOn/uTvfqxfQ2K/U9v7LeNDpluLTBt9VejffzylZl8HoFrF7i/vytnKX+PV/1RsvJ5+f5980gEFoH8wsY/DMgAGSADZIAMkAEyQAbIwPsyIO8YGq/+z9Uvf9UrT8nzG/W9bZape9nKiyfLn6YfxuLPV+fFiOf3AT0Wi/YXhvIXVOeFjsefU88LQm1/rr5ecCnH95F2Hq//Uuv8Bnm+C6jed/3n6su/4JS3+6xzr4/5+G3rGiwLQ9PCVfDdTPMiXui+rAFUB83XJ/Le6q8e/PylJW8t20T7fvRx7bZt3lmZFmCX53p+bhbrRO/cKQ9DoBbIEwD+sy2Az7ZNruCDjxbQVfKDjxbQVfKDjxbQVfKDjxbQVZ8fvTB00zub3oRvbXO/pes4pjH4Fy0Q6CNRfZfAD7sGMm9PILnNd/L4TmN9Vzh5EAKfJ+Bf2D5vzz9jT/jo64gPPlpAV8kPPlpAV8kPPlpAV8kPPlpAV31+vm5hSI+DKgKHBeSiz3NvLdscPjAPQACBUwv4F7ZTD/YPDA4fjY4PPlpAV8kPPlpAV8kPPlpAV8kPPlpAV31+NheG9G6oIoAAAgggcA4B/8J2jlGdZxT46GuBDz5aQFfJDz5aQFfJDz5aQFfJDz5aQFd9flgY0l5UEUAAAQROLuBf2E4+3JcPDx9Njg8+WkBXyQ8+WkBXyQ8+WkBXyQ8+WkBXfX5YGNJeVBFAAAEETi7gX9hOPtyXDw8fTY4PPlpAV8kPPlpAV8kPPlpAV8kPPlpAV31+WBjSXlQRQAABBE4u4F/YTj7clw8PH02ODz5aQFfJDz5aQFfJDz5aQFfJDz5aQFd9flgY0l5UEUAAAQROLuBf2E4+3JcPDx9Njg8+WkBXyQ8+WkBXyQ8+WkBXyQ8+WkBXfX5YGNJeVBFAAAEETi7gX9hOPtyXDw8fTY4PPlpAV8kPPlpAV8kPPlpAV8kPPlpAV31+NheG7tchXS6X+t9wTffn/vOfBa/qw5huc1GPwVXv6TYuxxrG5RhuQ35FAAEEEEBgJeBf2FYbdN6Bjw4APvhoAV0lP/hoAV0lP/hoAV0lP/hoAV31+ZELQ8N1e6UnLwyNt+Vg99uYLpcxFV1LUbTyfobx9lxwuqdbXpAqFqDEQykhgAACCCCQ/AsbJLUAPrWH/w0fL1L/jk/t4X/Dx4vUv+NTe/jf8PEi9e/41B7+N3y8SP07PrWH/837fNrCUD6QXyzyB1//fkvjajEp6ls/kh4EEEAAAQSygH9hQ6UWwKf28L/h40Xq3/GpPfxv+HiR+nd8ag//Gz5epP4dn9rD/4aPF6l/x6f28L95ny9bGLpfxzQMQ/hvFHcipcTCkL9o/I4AAgggsC3gX9i2t+yzgo++7vjgowV0lfzgowV0lfzgowV0lfzgowV01efnExeG7uk61B8v00PZqN7G6aNlG1W6EUAAAQQQqAT8C1tV5BfuqNrJAPnRQPjgowV0lfzgowV0lfzgowV0lfwc85ELQ9WXS1/qRR//sbHpy6o/+t1A92saProPff5UEUAAAQR+mAAv/PqC4oOPFtBV8oOPFtBV8oOPFtBV8oOPFtBV8nPMRy4M7X35dLlwlBd03vdXyZ4DZlFIXzmqCCCAAAKhAC/8IYt14mMUYQOfkMU68TGKsIFPyGKd+BhF2MAnZLFOfIwibOATslgnPkYRNrzPhxaGyr9K5o926DuGWBTyfPyOAAIIINAo4F/YGh/WzWb46EuNDz5aQFfJDz5aQFfJDz5aQFfJDz5aQFd9fr5sYUgPo6iyKFRg0EQAAQQQOCrgX9iOPv6nb4+PvsL44KMFdJX84KMFdJX84KMFdJX84KMFdNXn5w8vDOUvrB6S/CNl+nyoIoAAAgh0LuBf2DrnWJ0+PiuSqgOfimP1Cz4rkqoDn4pj9Qs+K5KqA5+KY/ULPiuSqgOfimP1Cz4rkqrD+8iFofI7hB7tMd2eu/NfPl0dpfWXfLfQ5ZLWx2GxqJWQ7RBAAIHeBfwLW+8e/vzx8SL17/jUHv43fLxI/Ts+tYf/DR8vUv+OT+3hf8PHi9S/41N7+N/w8SL1795nc2Gofhi/IYAAAgggcE4B/8J2zlH+uVHho+3xwUcL6Cr5wUcL6Cr5wUcL6Cr5wUcL6KrPDwtD2osqAggggMDJBfwL28mH+/Lh4aPJ8cFHC+gq+cFHC+gq+cFHC+gq+cFHC+iqzw8LQ9qLKgIIIIDAyQX8C9vJh/vy4eGjyfHBRwvoKvnBRwvoKvnBRwvoKvnBRwvoqs8PC0PaiyoCCCCAwMkF/AvbyYf78uHho8nxwUcL6Cr5wUcL6Cr5wUcL6Cr5wUcL6KrPDwtD2osqAggggMDJBfwL28mH+/Lh4aPJ8cFHC+gq+cFHC+gq+cFHC+gq+cFHC+iqzw8LQ9qLKgIIIIDAyQX8C9vJh/vy4eGjyfHBRwvoKvnBRwvoKvnBRwvoKvnBRwvoqs8PC0PaiyoCCCCAwMkF/AvbyYf78uHho8nxwUcL6Cr5wUcL6Cr5wUcL6Cr5wUcL6KrPDwtD2osqAggggMDJBfwL28mH+/Lh4aPJ8cFHC+gq+cFHC+gq+cFHC+gq+cFHC+iqz883XBi6pfEypps6z/s1DcM13dU23dVe63a/DmkMLtJWf3eX49NOuLyuZXvvAEe29fv6yGP9vl74+21Ml73/7XjhcDjU5wn4F7bP2/PP2BM++jrig48W0FXyg48W0FXyg48W0FXyg48W0FWfn3MtDN3GNFw/YTmnt4Wh07nd03WIFu+2+nVo/2j1s2y/7CTKRZqyvXfAI9vu7es71G9pHIY0sDD0HS7W4TH6F7bDO/jhD8BHX2B88NECukp+8NECukp+8NECukp+8NECuurzc6qFoXw3CQtD+gJG1dO5bS2mbPVHJ3WSvk+z/bLzKRd4yvbeAY9su7ev89cfd6r1dc7nvyqfN0L/wvZ5e/4Ze8JHX0d88NECukp+8NECukp+8NECukp+8NECuurzIxaG7uk2DulyuTz+5TtA7GaefOfHkK63axqHZ/1yScPY8vGter/DeJs+8nUbl/3kYz4+hvQ8zj3/v/2XdJk+Hubf3NX7uwzjNK76o2TrbZZzWYPdr2Ma8t0Fwb9x846mFpOWbdbjefTU53BGt3mcUzYsK/P5zNdy/j36WZ9jvpbzdVov0ORMzHcltbpu7z+leXxL1q5hJqNx577GMcxZfj6v6ufMegwTo3xM+Xwo248xbT+H/bbRedVec+ZSKh6b786b/zfCfg5peZrU+yivaXTErb73PSfnveVrmv+3qRj3XOLnjxDwL2w/4qQ+8STw0Zj44KMFdJX84KMFdJX84KMFdJX84KMFdNXnZ3NhKL+hHK6PRZu8y/stf2/P/EY8pcdCTl4cmlcAnm8Aoy+WKceUv+fDvv/n8Zj5Ies3/483ysO4LBBUb0rTcxzPxaXpMPMbVTtG3kafSzm8j7RbTFq2CcfwXdyy/3xByxPZ6i+20ddpXjR5PCBvWx6mxbVl/3XWUlpnshiwa+6PIec9L3oWz5nrkC52IlHe9x5TLnaU7b3c19u6U5mRN56r4rH5rrA/8NwLx//szNf9sVAlxq12QO30Av6F7fQDfvEA8dHg+OCjBXSV/OCjBXSV/OCjBXSV/OCjBXTV52djYWj+f9jrnT3e1D76cnv9sa+GN155gcPeCNf7X78Jz2+U/XHKY5TtZV95P8vi0/65LI/8WKvFpGWbcBTfxM0v2MznstU/16cFv2JBYe4vM5fy4lLeJlhk2nfdy0GUteMLQ4efE/M5TSccj2G2sJ/VY8rngGtLz3Jb23Pd2Mzc1mOz8bJ43HRN6yN+/m9VVrbG/fmHZY+vFfAvbK89+vmPho++RvjgowV0lfzgowV0lfzgowV0lfzgowV01ecnXhjKb6bsYyH1R7zmN77VG/bimMv/O190Vs3Hm9/8kZKxuCMpbxIvDM3/b/+8k+LNXfUGea5PO1ruWmg4l+KRH2q2mLRsEw/iO7jFiy9bCwTVeTZep2nRL/gC4V3X3f1nX5+1KJPVqKtfdseQt54+FlZ8RDM/z2wBJx6DfkzxfCg/KrV7vuXjqtMoftnKXPTYx9irNd/dMRSH+qJm/b9H0bi/6MDs9qUC/oXtpQf/BgfDR18kfPDRArpKfvDRArpKfvDRArpKfvDRArrq87O9MGRvVuMdNr0Jjh/67L2n2/O7fOY3k1+2MLRzLn6Y7/0+kxaTlm38eOrfz+wWf3n4+rrWZzT9lhcRGq5TfqOfv/tp+Q6bx752XXf3Hy/KNI39eTq7Y5gWbi4pf0/V/GEyuwvqgRAsTuXFDPWYcrGjaO+eb7Htc/zbP3zm1o8NnXbHsK71f1oAACAASURBVH1EX3nXc3L1Zefrcfvj8Pv3FPAvbN/zLL5u1PhoW3zw0QK6Sn7w0QK6Sn7w0QK6Sn7w0QK66vMTLwyVdx5s7C+/CZ7vHlo2eccbr+LjKus3l9Gb9fIYZXsZRd7PchdGvM2y9ee1Wkxatmka0enc8rUqP0Y0n8VW/1yffzZcp/xGP68iBgsO+657+4+ydvyOIfmcCMad8nW0BbFgDLuPKc9rqz0blz/Lbct+0bbMucfO12X1ULfdqv61HTkT9uX57g7IeTH6a0fA3l8l4F/YXnXc73IcfPSVwgcfLaCr5AcfLaCr5AcfLaCr5AcfLaCrPj8bC0PRlzrX3x/yeNPlv3z6svn9QfOwpu+asds9Hl+sO7+ZnhZ0qndswRtlt2g1jaP48unpS7Krj+fsn8s8to/+bDFp2SYax+ndthYHtvqDk/TX8vERqnmxqV5g8ouILa77+1/fibTOZDDwZ9fuGPIiT/4Y3Hy70PzXxvYWhuRjysWXsr2X+3rb6Ky2M1c8dlq4mq/Rei/afL391/YU4/7aA7H3Fwv4F7YXH/70h8NHXyJ88NECukp+8NECukp+8NECukp+8NECuurzs7kwlP/8dn5jaP+Pe/4z8PMb2udfAxuv/s/VL3/FbHsYeYFp+X/yqz/XPb1xftQei0X7C0PhOKe/oJb/PPX8H30u81Yf/ZnfBO+ZtGwTj+PcbjkrZT7mc9jqn+v1z+3r5BeC7M/DPy9ym+v2/v3+bFyrTFpl1WgZw/SRqPnulXyHVZXVKO/5rqVx+c6v1WPKxY6ynYenztdvuzqd/CzfeK4uj50WzubzKX7Oi716DNExv7JvGfdXHoV9v17Av7C9fgTnPiI++vrgg48W0FXyg48W0FXyg48W0FXyg48W0FWfH7EwpHc0vQm+bWxzv6XrOKYx+BctHmzs5dt1S5Pn2chtOnX7jAstXT/jAHkfO9fnJWP4rHOZ97NzTvNmn/7zTx3300+EHZ5BwL+wnWFMZxoDPvpq4IOPFtBV8oOPFtBV8oOPFtBV8oOPFtBVn5+vWRjSY/ix1ZaFgZZtfizQF57YGVzPMIYvJGbXCJxWwL+wnXagf2hg+Gh4fPDRArpKfvDRArpKfvDRArpKfvDRArrq8/PuhSF9GKoIIIAAAgi8RsC/sL3mqN/nKPjoa4UPPlpAV8kPPlpAV8kPPlpAV8kPPlpAV31+WBjSXlQRQAABBE4u4F/YTj7clw8PH02ODz5aQFfJDz5aQFfJDz5aQFfJDz5aQFd9flgY0l5UEUAAAQROLuBf2E4+3JcPDx9Njg8+WkBXyQ8+WkBXyQ8+WkBXyQ8+WkBXfX5YGNJeVBFAAAEETi7gX9hOPtyXDw8fTY4PPlpAV8kPPlpAV8kPPlpAV8kPPlpAV31+WBjSXlQRQAABBE4u4F/YTj7clw8PH02ODz5aQFfJDz5aQFfJDz5aQFfJDz5aQFd9flgY0l5UEUAAAQROLuBf2E4+3JcPDx9Njg8+WkBXyQ8+WkBXyQ8+WkBXyQ8+WkBXfX4uv379lX7//ju9vb2ly+XCPwzIABkgA2Tg22Ugv7jxDwMyQAbIABkgA2SADJABMnA8A9wxpBfSqCKAAAIInFwgv/jzn20BfLZtcgUffLSArpIffLSArpIffLSArpIffLSArvr8sDCkvagigAACCJxcwL+wnXy4Lx8ePpocH3y0gK6SH3y0gK6SH3y0gK6SH3y0gK76/LAwpL2oIoAAAgicXMC/sJ18uC8fHj6aHB98tICukh98tICukh98tICukh98tICu+vywMKS9qCKAAAIInFzAv7CdfLgvHx4+mhwffLSArpIffLSArpIffLSArpIffLSArvr8sDCkvagigAACCJxcwL+wnXy4Lx8ePpocH3y0gK6SH3y0gK6SH3y0gK6SH3y0gK76/LAwpL2+RfV+HdZ/QWi4pnse/W1Mw9wuz+Z+TcMwptuz7za6v0iXa9MOHhvIY6SUovowPseQ7uk6uP2Xf/VpnEdRDnBpr8Z2GdIw3h7nt2xWtG5pvFzScC1OYKoeHcfWfopDBc3VeJ3l8hC9f2267OXR2t/X2uPxyHwcVVv9tcIiT+qxfoTV7/dbGocyt0May8DtZqrc2z1dx3Jfl7Rkb97uce3DqE3PhTmr+Snjsrp5/eZ98/NPC/gXtj89nrMdHx99RfDBRwvoKvnBRwvoKvnBRwvoKvnBRwvoqs8PC0Pa61tU996c38b8prs8lfwmue7Lb4bLbe63MV0uy8LR3jHW9Xu65QWrYhFhHoE/1ty/9XO9/T3lcyrHVz02j30c01iMv6o/f1nv123VuB/3qGlhQVna9jv7P2KaFwDVOa/3ZaOYFvXUwtBWLe9B7Xc5gmvlhZiLWwiaForqxbz1vqNMzQti5ULhc7vq+h9bGGq6fu60+PXPCfgXtj83knMeGR99XfDBRwvoKvnBRwvoKvnBRwvoKvnBRwvoqs8PC0Pa61tU12+g/bDz3RnLIs90F1H5zne6saheGMp7KBdO9o4R1x8LUP7GnXK/fqTR71vb52Ne3HmU49563HyM1vredvP+5p/R9qovquV9vcf02L4eI46Ps1/bHuPjsVv/nccYLja5O3ficdWZ2tzXfMeR5eP9C0P5PLZct86R/tcK+Be21x79/EfDR18jfPDRArpKfvDRArpKfvDRArpKfvDRArrq88PCkPb6FtX4DbQbev5I2fQm2S0SPTeL3viWfXvHiOv1m/h5ROV+5z71c3v7fLdIseA17aTom+6iqW6Vqg6zvd+8Wft+qp1uLCKsj7W//3bT9+7rMfL4OPu1vIV6rHd5/F6MNd7AeuN9l5na21dZZ2HIYH9gw7+w/cBT/NAp4aP58MFHC+gq+cFHC+gq+cFHC+gq+cFHC+iqzw8LQ9rrW1TjN9DroeePXw3uI2TzVuuFi/qN9N4x1vXnx72+5KNk86jLRYJHXx7HchdRuTAwP2b5uT7npXZkP8ujHq31fmvLvFXL/ltN37evZdTr47TV5vMI7/5ZdlG33F1BdbH+bT0ul6ndfZX5WF8DO5rbT8v1s8fSOIWAf2E7xaBONAh89MXABx8toKvkBx8toKvkBx8toKvkBx8toKs+PywMaa9vUZ0WBsovc76sPxY2nUi+g+YyJP/Rrlzzb4anfRaLOnvHWNe3vyDaH2sPeXv78o1/3sv6zf/2Y9fnvIzj2H6Wxz1a/pjesnWcbaZtY8372lrA2av5L5+2T2e9544htwjj7crfd89/d19lPtZOdiy3n/3rZ4+kcRIB/8J2kmGdZhj46EuBDz5aQFfJDz5aQFfJDz5aQFfJDz5aQFd9flgY0l7foqre2C8n8PwI2cbHq/Kb4XIBIP8ls/KPRO0do6pv/SW052D8G+9ljHFre/vyjf+0SrH+C2wb55uPtLlft1AwjUrsx496zzI17r/J9D37cgOujnOgljdVj3W7evwajLf2Wj4aWO07ylSwr/qYZT6OLQyp50J9DH47g4B/YTvDmM40Bnz01cAHHy2gq+QHHy2gq+QHHy2gq+QHHy2gqz4/LAxpr29Rrd5Ab4y4/Mtk0YJI1Ffuau8Yvp73t3WHyt6xyuPm9ub2eWGg+I6hPIbyDf3SbrtLaj7u0f3Mj5t/bo73uUHr/ltM37uveaz5pz9Oa23vseV+lrb6eF9d8+NaZ6refjnG3Krrm9fFLTBtbjfvlp+nE/AvbKcb4B8eED76AuCDjxbQVfKDjxbQVfKDjxbQVfKDjxbQVZ8fFoa017eo+jfQq0HbF08/K9Mb4eXOjNy792Z47xirulu0Kce0d6xyWzW2vJ9l8Wn7jpB6u2Xv8TiO72fZ46MV73feqn3/+6Yf2Nc8nJcvDD2ytly3YiDlF35H4woytXVt816z3/J9U9sLYN5ZX79yvLTPIuBf2M4yrrOMAx99JfDBRwvoKvnBRwvoKvnBRwvoKvnBRwvoqs8PC0Pa61tU/RvbetD5I2TrO2amxxRfFrP3ZlgfI37TnR9TvjGfx7V3rHm7+ed6+/lLiIvFrfxRr+I7kebHTj83auv9Titkh/dTHWtvkW1jLNE4I/PK9IP7mscdHaellrdRj533sf6Z7+TJi3q3dLfifE2vaf47ctG+q/OfHvvc1+j2Nd09VuQjbzstLA1pLD4jec+Lpu57t8Jc2DhpnFHAv7CdcYx/ckz4aH188NECukp+8NECukp+8NECukp+8NECuurzw8KQ9voW1enNsvvy6cvzI1bTXyKLvm16+qLmZcFo782wOkZGit7EP/7k+3KMGXPvWPN288+8/fKxsNxef7F13ia+C2UaXboGi2PRON6zn3mc889ov2WtdZx7pkfGGl6/58Lg4drex/eKBcf5vFc/77d0HcuP/q2v6d75L/t8LCoN9hxY78u2vV/TOBR5Gsbqu7Tydur62X5onErAv7CdanAnGAw++iLgg48W0FXyg48W0FXyg48W0FXyg48W0FWfHxaGtNc5qtOb6DGN4/pfuOZzjlG3j+K7nd93G2/7lficLfH5HEf20izgX9iaH9jJhvjoC40PPlpAV8kPPlpAV8kPPlpAV8kPPlpAV31+WBjSXlQRQAABBE4u4F/YTj7clw8PH02ODz5aQFfJDz5aQFfJDz5aQFfJDz5aQFd9fi6/fv2Vfv/+O729vbmP6xQft7CPaNBXf6QJDzzIABkgA2fIQH5x4x8GZIAMkAEyQAbIABkgA2TgeAa4Y0gvpFk1h4v/bAvgs22TK/jgowV0lfzgowV0lfzgowV0lfzgowV0lfzgowV0lfzgowV0lfwc82FhSHtZlWAZRdjAJ2SxTnyMImzgE7JYJz5GETbwCVmsEx+jCBv4hCzWiY9RhA18QhbrxMcowgY+IYt14mMUYQOfkMU68TGKsOF9WBgKmdadHm69Rd89+Ojrjw8+WkBXyQ8+WkBXyQ8+WkBXyQ8+WkBXyQ8+WkBXyQ8+WkBXyc8xHxaGtJdVCZZRhA18QhbrxMcowgY+IYt14mMUYQOfkMU68TGKsIFPyGKd+BhF2MAnZLFOfIwibOATslgnPkYRNvAJWawTH6MIG96HhaGQad3p4dZb9N2Dj77++OCjBXSV/OCjBXSV/OCjBXSV/OCjBXSV/OCjBXSV/OCjBXSV/BzzYWFIe1mVYBlF2MAnZLFOfIwibOATslgnPkYRNvAJWawTH6MIG/iELNaJj1GEDXxCFuvExyjCBj4hi3XiYxRhA5+QxTrxMYqw4X1YGAqZ1p0ebr1F3z346OuPDz5aQFfJDz5aQFfJDz5aQFfJDz5aQFfJDz5aQFfJDz5aQFfJzzEfFoa0l1UJllGEDXxCFuvExyjCBj4hi3XiYxRhA5+QxTrxMYqwgU/IYp34GEXYwCdksU58jCJs4BOyWCc+RhE28AlZrBMfowgb3oeFoZBp3enh1lv03YOPvv744KMFdJX84KMFdJX84KMFdJX84KMFdJX84KMFdJX84KMFdJX8HPNhYUh7WZVgGUXYwCdksU58jCJs4BOyWCc+RhE28AlZrBMfowgb+IQs1omPUYQNfEIW68THKMIGPiGLdeJjFGEDn5DFOvExirDhfVgYCpnWnR5uvUXfPfjo648PPlpAV8kPPlpAV8kPPlpAV8kPPlpAV8kPPlpAV8kPPlpAV8nPMR8WhrSXVQmWUYQNfEIW68THKMIGPiGLdeJjFGEDn5DFOvExirCBT8hinfgYRdjAJ2SxTnyMImzgE7JYJz5GETbwCVmsEx+jCBveh4WhkGnd6eHWW/Tdg4++/vjgowV0lfzgowV0lfzgowV0lfzgowV0lfzgowV0lfzgowV0lfwc82FhSHtZlWAZRdjAJ2SxTnyMImzgE7JYJz5GETbwCVmsEx+jCBv4hCzWiY9RhA18QhbrxMcowgY+IYt14mMUYQOfkMU68TGKsOF9WBgKmdadHm69Rd89+Ojrjw8+WkBXyQ8+WkBXyQ8+WkBXyQ8+WkBXyQ8+WkBXyQ8+WkBXyc8xHxaGtJdVCZZRhA18QhbrxMcowgY+IYt14mMUYQOfkMU68TGKsIFPyGKd+BhF2MAnZLFOfIwibOATslgnPkYRNvAJWawTH6MIG96HhaGQad3p4dZb9N2Dj77++OCjBXSV/OCjBXSV/OCjBXSV/OCjBXSV/OCjBXSV/OCjBXSV/BzzYWFIe1mVYBlF2MAnZLFOfIwibOATslgnPkYRNvAJWawTH6MIG/iELNaJj1GEDXxCFuvExyjCBj4hi3XiYxRhA5+QxTrxMYqw4X0uv379lX7//ju9vb2lXORfbHC5XBL/MCADZIAMkAEy8PMywNwnnvtkF/L+8/LONeWakgEyQAbIQM5AOf/hjqFw/WzdmeFS4p82WLvRMwuQHZ2d7MN/tgXID/nZTsd+hfyo/Dxe3/cVe92C+U/L86fXdLScd4tf79u0OPa6Te/ZaDn/XrPRct4tfv1u4+c/LAy1ZCovCbEw1LAw1ojZ5Wb9/o+OekNW17oMRuNJk586K5FHI2WXm0Ve9M2Z8hOjLiMiTpr5T8tzRQB2X2rx632b7kMiAHrPRsv5C77uSy1+/W7j5z8sDDU+YZgYtTxpGjG73KzFr/dtugxG40n3no2W82+k7HKzFr9+t/EToy4jIk6a+U/Lc0MAdl9q8et9m+5DIgB6z0bL+Qu+7kstfv1u4+c/LAw1PmGYGLU8aRoxu9ysxa/3bboMRuNJ956NlvNvpOxysxa/frfxE6MuIyJOmvlPy3NDAHZfavHrfZvuQyIAes9Gy/kLvu5LLX79buPnPywMNT5hmBi1PGkaMbvcrMWv9226DEbjSfeejZbzb6TscrMWv3638ROjLiMiTpr5T8tzQwB2X2rx632b7kMiAHrPRsv5C77uSy1+/W7j5z8sDDU+YZgYtTxpGjG73KzFr/dtugxG40n3no2W82+k7HKzFr9+t/EToy4jIk6a+U/Lc0MAdl9q8et9m+5DIgB6z0bL+Qu+7kstfv1u4+c/LAw1PmGYGLU8aRoxu9ysxa/3bboMRuNJ956NlvNvpOxysxa/frfxE6MuIyJOmvlPy3NDAHZfavHrfZvuQyIAes9Gy/kLvu5LLX79buPnPywMNT5hmBi1PGkaMbvcrMWv9226DEbjSfeejZbzb6TscrMWv3638ROjLiMiTpr5T8tzQwB2X2rx632b7kMiAHrPRsv5C77uSy1+/W7j5z8sDDU+YZgYtTxpGjG73KzFr/dtugxG40n3no2W82+k7HKzFr9+t/EToy4jIk6a+U/Lc0MAdl9q8et9m+5DIgB6z0bL+Qu+7kstfv1u4+c/LAw1PmGYGLU8aRoxu9ysxa/3bboMRuNJ956NlvNvpOxysxa/frfxE6MuIyJOmvlPy3NDAHZfavHrfZvuQyIAes9Gy/kLvu5LLX79buPnPywMNT5hmBi1PGkaMbvcrMWv9226DEbjSfeejZbzb6TscrMWv3638ROjLiMiTpr5T8tzQwB2X2rx632b7kMiAHrPRsv5C77uSy1+/W7j5z8sDDU+YZgYtTxpGjG73KzFr/dtugxG40n3no2W82+k7HKzFr9+t/EToy4jIk6a+U/Lc0MAdl9q8et9m+5DIgB6z0bL+Qu+7kstfv1u4+c/LAw1PmGYGLU8aRoxu9ysxa/3bboMRuNJ956NlvNvpOxysxa/frfxE6MuIyJOmvlPy3NDAHZfavHrfZvuQyIAes9Gy/kLvu5LLX79buPnPywMNT5hmBi1PGkaMbvcrMWv9226DEbjSfeejZbzb6TscrMWv3638ROjLiMiTpr5T8tzQwB2X2rx632b7kMiAHrPRsv5C77uSy1+/W7j5z8sDDU+YZgYtTxpGjG73KzFr/dtugxG40n3no2W82+k7HKzFr9+t/EToy4jIk6a+U/Lc0MAdl9q8et9m+5DIgB6z0bL+Qu+7kstfv1u4+c/LAw1PmGYGLU8aRoxu9ysxa/3bboMRuNJ956NlvNvpOxysxa/frfxE6MuIyJOmvlPy3NDAHZfavHrfZvuQyIAes9Gy/kLvu5LLX79buPnPywMNT5hmBi1PGkaMbvcrMWv9226DEbjSfeejZbzb6TscrMWv3638ROjLiMiTpr5T8tzQwB2X2rx632b7kMiAHrPRsv5C77uSy1+/W7j5z8sDDU+YZgYtTxpGjG73KzFr/dtugxG40n3no2W82+k7HKzFr9+t/EToy4jIk6a+U/Lc0MAdl9q8et9m+5DIgB6z0bL+Qu+7kstfv1u4+c/l1+//kq/f/+d3t7e0j///MO/DYMMxz8MyAAZIANkgAz8vAww/9me/5H3n5d3rinXlAyQATJABnIGyvkPdww1rqRmNP6zLYDPtk2u4IOPFtBV8oOPFtBV8oOPFtBV8oOPFtBV8oOPFtBV8oOPFtBV8nPMh4Uh7WVVgmUUYQOfkMU68TGKsIFPyGKd+BhF2MAnZLFOfIwibOATslgnPkYRNvAJWawTH6MIG/iELNaJj1GEDXxCFuvExyjChvdhYShkWnd6uPUWfffgo68/PvhoAV0lP/hoAV0lP/hoAV0lP/hoAV0lP/hoAV0lP/hoAV0lP8d8WBjSXlYlWEYRNvAJWawTH6MIG/iELNaJj1GEDXxCFuvExyjCBj4hi3XiYxRhA5+QxTrxMYqwgU/IYp34GEXYwCdksU58jCJseB8WhkKmdaeHW2/Rdw8++vrjg48W0FXyg48W0FXyg48W0FXyg48W0FXyg48W0FXyg48W0FXyc8yHhSHtZVWCZRRhA5+QxTrxMYqwgU/IYp34GEXYwCdksU58jCJs4BOyWCc+RhE28AlZrBMfowgb+IQs1omPUYQNfEIW68THKMKG92FhKGRad3q49RZ99+Cjrz8++GgBXSU/+GgBXSU/+GgBXSU/+GgBXSU/+GgBXSU/+GgBXSU/x3xYGNJeViVYRhE28AlZrBMfowgb+IQs1omPUYQNfEIW68THKMIGPiGLdeJjFGEDn5DFOvExirCBT8hinfgYRdjAJ2SxTnyMImx4HxaGQqZ1p4dbb9F3Dz76+uODjxbQVfKDjxbQVfKDjxbQVfKDjxbQVfKDjxbQVfKDjxbQVfJzzIeFIe1lVYJlFGEDn5DFOvExirCBT8hinfgYRdjAJ2SxTnyMImzgE7JYJz5GETbwCVmsEx+jCBv4hCzWiY9RhA18QhbrxMcowob3YWEoZFp3erj1Fn334KOvPz74aAFdJT/4aAFdJT/4aAFdJT/4aAFdJT/4aAFdJT/4aAFdJT/HfFgY0l5WJVhGETbwCVmsEx+jCBv4hCzWiY9RhA18QhbrxMcowgY+IYt14mMUYQOfkMU68TGKsIFPyGKd+BhF2MAnZLFOfIwibHgfFoZCpnWnh1tv0XcPPvr644OPFtBV8oOPFtBV8oOPFtBV8oOPFtBV8oOPFtBV8oOPFtBV8nPMh4Uh7WVVgmUUYQOfkMU68TGKsIFPyGKd+BhF2MAnZLFOfIwibOATslgnPkYRNvAJWawTH6MIG/iELNaJj1GEDXxCFuvExyjChvdhYShkWnd6uPUWfffgo68/PvhoAV0lP/hoAV0lP/hoAV0lP/hoAV0lP/hoAV0lP/hoAV0lP8d8WBjSXlYlWEYRNvAJWawTH6MIG/iELNaJj1GEDXxCFuvExyjCBj4hi3XiYxRhA5+QxTrxMYqwgU/IYp34GEXYwCdksU58jCJseB8WhkKmdaeHW2/Rdw8++vrjg48W0FXyg48W0FXyg48W0FXyg48W0FXyg48W0FXyg48W0FXyc8yHhSHtZVWCZRRhA5+QxTrxMYqwgU/IYp34GEXYwCdksU58jCJs4BOyWCc+RhE28AlZrBMfowgb+IQs1omPUYQNfEIW68THKMKG97n8+vVX+v377/T29pZykX8YkAEyQAbIABkgA2SADJABMkAGyAAZIANkoI8McMdQuH5GJwIIIIDAdxHIExb+sy2Az7ZNruCDjxbQVfKDjxbQVfKDjxbQVfKDjxbQVZ8fFoa0F1UEEEAAgZML+Be2kw/35cPDR5Pjg48W0FXyg48W0FXyg48W0FXyg48W0FWfHxaGtBdVBBBAAIGTC/gXtpMP9+XDw0eT44OPFtBV8oOPFtBV8oOPFtBV8oOPFtBVnx8WhrQXVQQQQACBkwv4F7aTD/flw8NHk+ODjxbQVfKDjxbQVfKDjxbQVfKDjxbQVZ8fFoa0V9fV+3VIl8ul/jdc0z2r3MY0zO1S6X5NwzCm27PvNvrHj+k27eCxgTxGSimqD+NzDOmeroPbfznecR5FOcClvTe2Yss0Xi5puBYDX4o7Yyw2nJq33X2p46ja5rV6Om491o+w+v1+S+NQ5mBIY3kBd69Rubd7uo7lvi5puZbzdo9rGl66KVvztc8RdNc+5y6+RPPO+flDBfwL2w89zXefFj6aDh98tICukh98tICukh98tICukh98tICu+vywMKS9uq7mRRm1mHAb8yJBSZTf1Nd9+c17uc39NqbLZVk42jvGun5Pt7xgFSxK+WOVI4vafns/NntMHvM4prEYt9XCRZftMeYFtWP7Wo60tmir5a3UY5e9uFZeiLm4haBpoaheJFvvOzr/eUHs9lhYnA713K5yPbYwpLLlzoZff7CAf2H7waf6rlPDR7Phg48W0FXyg48W0FXyg48W0FXyg48W0FWfHxaGtFfX1fUbfs+R7yZZFnmmu4jKd+rTjUX1wlDeQ7kgs3eMuP5YgPI38JT79SONfo+2V31RLe/3PWM8tq/H6OPj7Ne2x/h47NZ/5zGGC4Puzp14XPU12tzXfMeR5eb9C0P5PLZct86R/p8h4F/YfsZZfd5Z4KMt8cFHC+gq+cFHC+gq+cFHC+gq+cFHC+iqzw8LQ9qr62r8ht+R5I+UTW/q3SLRc7PojXrZt3eMuF4vOswjKvc796mfmzRiBQAAEu9JREFU0fbrvnyny3Pxa7rbp7pFatp9+xjfu6/HWcTH2a/lLdRjH3vw/12M1Zfc7/G+y2u0t6+yzsKQ4+XXBgH/wtbwkK42wUdfbnzw0QK6Sn7w0QK6Sn7w0QK6Sn7w0QK66vPDwpD26roav+Ffk+SPlA3uI2TzVuuFlvqN/94x1vV7ysf7io+Sped3FtnNK6u7WcoFjPkMo0WXeIz5XC6289Z9qeO01fJWa8flsWHL3RUUbvPsXO/bnf/uvspFpDof1XHdfvayVT2WX360gH9h+9En+46Tw0ej4YOPFtBV8oOPFtBV8oOPFtBV8oOPFtBVnx8WhrRX19VpIaP8MufL+mNhE9D0vUFD8h/tyjX/5n3aZ/H9QHvHWNeH6Q6l6DuG/bH2Lp7f3o8tWijyj8nHaBvjesFja1/hx7d2FnfWY6ivVa5v7Td0cosw4TbPzvWx3TXa3dfnLAxN4yiypcZM7WcJ+Be2n3V2Hz8bfLQhPvhoAV0lP/hoAV0lP/hoAV0lP/hoAV31+WFhSHt1XW1bTHh+hGzjY1Z58aP8a1n5L5mVfzlq7xhVfesvoT2vUrTQoi7g3thStKARnGfTGN+zLzf46jgHanlT9Vi3q8evwXhrr+W7pap9R9co2Fd9zPcvDKls1cfgt58s4F/YfvK5vufc8NFq+OCjBXSV/OCjBXSV/OCjBXSV/OCjBXTV54eFIe3VdbV6w78hUf5lsmhhJuord7V3DF/P+9u682XvWOVxc3tv+3zscuFhadd3R7WM8b37Ksfsj9Nay9upx5b7WdrxR90e9brm972+RvX2yzHmVl3fvC5ugWlzu3m3/OxGwL+wdXPijSeKj4bCBx8toKvkBx8toKvkBx8toKvkBx8toKs+PywMaa+uq/4N/wrDvnj6WZneuC93kuTevTfve8dY1fMx5i+DdgPaO5bbfGds649+zY/PxykXp/bH+IF9zQfdWdxZjaF4XG7u1d3m06/+PJdt6oWc1b6Da7S9r+dH8ey7l7bH6o9z9Hov46f10wT8C9tPO7+Png8+WhAffLSArpIffLSArpIffLSArpIffLSArvr8sDCkvbqu+jfiNUb+CFl950yuT48p3uTvvXnXx4gXCfJjli9xXka1d6xly0dLbp8/Mrb1fTWuFp1DNUa3fTUOV4v2NW//3lp+vHrsvP/1z7wAlBfBbmn5Tqfli6Xnv88W7Tv31dfoua/R7Wu6K6teTJw+wncZ0lh85vCeFyEvdd7k9VufDD0/WMC/sP3gU33XqeGj2fDBRwvoKvnBRwvoKvnBRwvoKvnBRwvoqs8PC0Paq+vq9Obeffn05Xm3zvSXyKJvm57+stfyBn7vzbs6RsaPFh1SyosMyzHmi7R3rHm7+afaPtfKu4Lmxzx+lt+Jsz/Go/taPrL2/H6m50JbaKVqxZ1V6rH1ubnf7rd0zX8FznLgvlj60DV6LCoNYl929Ps1jUPx/VTDWH03Vd5OXT/bD40uBPwLWxcnfeAk8dFY+OCjBXSV/OCjBXSV/OCjBXSV/OCjBXTV54eFIe31s6vTm/4xjeP6X7jm8900fvr5ffR64PNRQR5/EgH/wnaSYZ1mGPjoS4EPPlpAV8kPPlpAV8kPPlpAV8kPPlpAV31+WBjSXlQRQAABBE4u4F/YTj7clw8PH02ODz5aQFfJDz5aQFfJDz5aQFfJDz5aQFd9flgY0l5UEUAAAQROLuBf2E4+3JcPDx9Njg8+WkBXyQ8+WkBXyQ8+WkBXyQ8+WkBXfX4uv379lX7//ju9vb0V3yNSfLeHfR8Ifcv3rGCBBRkgA2TgTBnIL278w4AMkAEyQAbIABkgA2SADBzPAHcM6YU0q+Zw8Z9tAXy2bXIFH3y0gK6SH3y0gK6SH3y0gK6SH3y0gK6SH3y0gK6SH3y0gK6Sn2M+LAxpL6sSLKMIG/iELNaJj1GEDXxCFuvExyjCBj4hi3XiYxRhA5+QxTrxMYqwgU/IYp34GEXYwCdksU58jCJs4BOyWCc+RhE2vA8LQyHTutPDrbfouwcfff3xwUcL6Cr5wUcL6Cr5wUcL6Cr5wUcL6Cr5wUcL6Cr5wUcL6Cr5OebDwpD2sirBMoqwgU/IYp34GEXYwCdksU58jCJs4BOyWCc+RhE28AlZrBMfowgb+IQs1omPUYQNfEIW68THKMIGPiGLdeJjFGHD+7AwFDKtOz3ceou+e/DR1x8ffLSArpIffLSArpIffLSArpIffLSArpIffLSArpIffLSArpKfYz4sDGkvqxIsowgb+IQs1omPUYQNfEIW68THKMIGPiGLdeJjFGEDn5DFOvExirCBT8hinfgYRdjAJ2SxTnyMImzgE7JYJz5GETa8DwtDIdO608Ott+i7Bx99/fHBRwvoKvnBRwvoKvnBRwvoKvnBRwvoKvnBRwvoKvnBRwvoKvk55sPCkPayKsEyirCBT8hinfgYRdjAJ2SxTnyMImzgE7JYJz5GETbwCVmsEx+jCBv4hCzWiY9RhA18QhbrxMcowgY+IYt14mMUYcP7sDAUMq07Pdx6i7578NHXHx98tICukh98tICukh98tICukh98tICukh98tICukh98tICukp9jPiwMaS+rEiyjCBv4hCzWiY9RhA18QhbrxMcowgY+IYt14mMUYQOfkMU68TGKsIFPyGKd+BhF2MAnZLFOfIwibOATslgnPkYRNrwPC0Mh07rTw6236LsHH3398cFHC+gq+cFHC+gq+cFHC+gq+cFHC+gq+cFHC+gq+cFHC+gq+Tnmw8KQ9rIqwTKKsIFPyGKd+BhF2MAnZLFOfIwibOATslgnPkYRNvAJWawTH6MIG/iELNaJj1GEDXxCFuvExyjCBj4hi3XiYxRhw/uwMBQyrTs93HqLvnvw0dcfH3y0gK6SH3y0gK6SH3y0gK6SH3y0gK6SH3y0gK6SH3y0gK6Sn2M+LAxpL6sSLKMIG/iELNaJj1GEDXxCFuvExyjCBj4hi3XiYxRhA5+QxTrxMYqwgU/IYp34GEXYwCdksU58jCJs4BOyWCc+RhE2vA8LQyHTutPDrbfouwcfff3xwUcL6Cr5wUcL6Cr5wUcL6Cr5wUcL6Cr5wUcL6Cr5wUcL6Cr5OebDwpD2sirBMoqwgU/IYp34GEXYwCdksU58jCJs4BOyWCc+RhE28AlZrBMfowgb+IQs1omPUYQNfEIW68THKMIGPiGLdeJjFGHD+7AwFDKtOz3ceou+e/DR1x8ffLSArpIffLSArpIffLSArpIffLSArpIffLSArpIffLSArpKfYz4sDGkvqxIsowgb+IQs1omPUYQNfEIW68THKMIGPiGLdeJjFGEDn5DFOvExirCBT8hinfgYRdjAJ2SxTnyMImzgE7JYJz5GETa8z+XXr7/S799/p7e3t5SL/IsNUrok/mkDshNnZ3rSXS4p8U8akJ/t/PzP//P/Ev+0AfnZzs/l//6PxD9tQH6288PcR899sg/5Eflh7iPnPnluSH6288PcR899sg/52c4Pcx8998k+ZX64YyhcP4s69ycGTJ4iN/omASZGuxMjkrItwMRof2K0rUeFidH+xIiUKAHmP/vzO+XXeY35D/OfDzwFmP8w//lAfPg/xRr+j8HSl4WhUkO2mRgxMZIB0UUmRkyMdEJklYkREyMZkJ0iC0MsDO1EZKfM/If5z05EVJn5D/MflY+dGvMf5j87EZFl5j/H5j8sDMk4lUUmRkyMyjwcbDMxYmJ0MDLl5kyMmBiVeTjaZmJ0bGJ01Pfnb8/8h/nPB1LO/If5zwfiw/yH+c8H4sMdQ9wx9JH4qMcyMWJipPKxU2NixMRoJyKqzMSIiZHKx16NhSEWhvYyouvMf5j/6ITIKvMf5j8yILrI/If5j06IrjL/OTb/4Y4hnaeiysSIiVERh6NNJkZMjI5mptieiREToyIOh5tMjI5NjA4D//gHMP9h/vOBkDP/Yf7zgfgw/2H+84H4cMcQdwx9JD7qsUyMmBipfOzUmBgxMdqJiCozMWJipPKxV2NhiIWhvYzoOvMf5j86IbLK/If5jwyILjL/Yf6jE6KrzH+OzX+4Y0jnqagyMWJiVMThaJOJEROjo5kptmdixMSoiMPhJhOjYxOjw8A//gHMf5j/fCDkzH+Y/3wgPsx/mP98ID7cMcQdQx+Jj3osEyMmRiofOzUmRkyMdiKiykyMmBipfOzVWBhiYWgvI7rO/If5j06IrDL/Yf4jA6KLzH+Y/+iE6Crzn2PzH+4Y0nkqqkyMmBgVcTjaZGLExOhoZortmRgxMSricLjJxOjYxOgw8I9/APMf5j8fCDnzH+Y/H4gP8x/mPx+ID3cMccfQR+KjHsvEiImRysdOjYkRE6OdiKgyEyMmRiofezUWhlgY2suIrjP/Yf6jEyKrzH+Y/8iA6CLzH+Y/OiG6yvzn2PyHO4Z0nooqEyMmRkUcjjaZGDExOpqZYnsmRkyMijgcbjIxOjYxOgz84x/A/If5zwdCzvyH+c8H4sP8h/nPB+LDHUPcMfSR+KjHMjFiYqTysVNjYsTEaCciqszEiImRysdejYUhFob2MqLrzH+Y/+iEyCrzH+Y/MiC6yPyH+Y9OiK4y/zk2/+GOIZ2nosrEiIlREYejTSZGTIyOZqbYnokRE6MiDoebTIyOTYwOA//4BzD/Yf7zgZAz/2H+84H4MP9h/vOB+HDHEHcMfSQ+6rFMjJgYqXzs1JgYMTHaiYgqMzFiYqTysVdjYYiFob2M6DrzH+Y/OiGyyvyH+Y8MiC4y/2H+oxOiq8x/js1/uGNI56moMjFiYlTE4WiTiRETo6OZKbZnYsTEqIjD4SYTo2MTo8PAP/4BzH+Y/3wg5Mx/mP98ID7Mf5j/fCA+3DHEHUMfiY96LBMjJkYqHzs1JkZMjHYiospMjJgYqXzs1VgYYmFoLyO6zvyH+Y9OiKwy/2H+IwOii8x/mP/ohOgq859j8x/uGNJ5KqpMjJgYFXE42mRixMToaGaK7ZkYMTEq4nC4ycTo2MToMPCPfwDzH+Y/Hwg58x/mPx+ID/Mf5j8fiA93DHHH0Efiox7LxIiJkcrHTo2JEROjnYioMhMjJkYqH3s1FoZYGNrLiK4z/2H+oxMiq8x/mP/IgOgi8x/mPzohusr859j85/Lr11/p9++/09vbW/rnn3/4t2GwPylg4kR+tp8/iYnR7sSI/Gznh4nR/sSI/Gznh4nR/sSI/Gznh/nP/vyO/Ij8MP9h/rPx3qrlecP8h/lPS062tmH+c2z+w0fJ9EKjVXPg+M+2AD7bNrmCDz5aQFfJDz5aQFfJDz5aQFfJDz5aQFfJDz5aQFfJDz5aQFfJzzEfFoa0l1UJllGEDXxCFuvExyjCBj4hi3XiYxRhA5+QxTrxMYqwgU/IYp34GEXYwCdksU58jCJs4BOyWCc+RhE28AlZrBMfowgb3oeFoZBp3enh1lv03YOPvv744KMFdJX84KMFdJX84KMFdJX84KMFdJX84KMFdJX84KMFdJX8HPNhYUh7WZVgGUXYwCdksU58jCJs4BOyWCc+RhE28AlZrBMfowgb+IQs1omPUYQNfEIW68THKMIGPiGLdeJjFGEDn5DFOvExirDhfVgYCpnWnR5uvUXfPfjo648PPlpAV8kPPlpAV8kPPlpAV8kPPlpAV8kPPlpAV8kPPlpAV8nPMR8WhrSXVQmWUYQNfEIW68THKMIGPiGLdeJjFGEDn5DFOvExirCBT8hinfgYRdjAJ2SxTnyMImzgE7JYJz5GETbwCVmsEx+jCBveh4WhkGnd6eHWW/Tdg4++/vjgowV0lfzgowV0lfzgowV0lfzgowV0lfzgowV0lfzgowV0lfwc82FhSHtZlWAZRdjAJ2SxTnyMImzgE7JYJz5GETbwCVmsEx+jCBv4hCzWiY9RhA18QhbrxMcowgY+IYt14mMUYQOfkMU68TGKsOF9WBgKmdadHm69Rd89+Ojrjw8+WkBXyQ8+WkBXyQ8+WkBXyQ8+WkBXyQ8+WkBXyQ8+WkBXyc8xHxaGtJdVCZZRhA18QhbrxMcowgY+IYt14mMUYQOfkMU68TGKsIFPyGKd+BhF2MAnZLFOfIwibOATslgnPkYRNvAJWawTH6MIG96HhaGQad3p4dZb9N2Dj77++OCjBXSV/OCjBXSV/OCjBXSV/OCjBXSV/OCjBXSV/OCjBXSV/BzzYWFIe1mVYBlF2MAnZLFOfIwibOATslgnPkYRNvAJWawTH6MIG/iELNaJj1GEDXxCFuvExyjCBj4hi3XiYxRhA5+QxTrxMYqw4X1YGAqZ1p0ebr1F3z346OuPDz5aQFfJDz5aQFfJDz5aQFfJDz5aQFfJDz5aQFfJDz5aQFfJzzEfFoa0l1UJllGEDXxCFuvExyjCBj4hi3XiYxRhA5+QxTrxMYqwgU/IYp34GEXYwCdksU58jCJs4BOyWCc+RhE28AlZrBMfowgb3uf/A068b+e7i5UiAAAAAElFTkSuQmCC;" parent="_rezS92-L02Tb0f8z7KF-25" vertex="1">
          <mxGeometry y="400" width="488.18" height="107.5" as="geometry" />
        </mxCell>
        <mxCell id="_rezS92-L02Tb0f8z7KF-30" value="" style="edgeStyle=orthogonalEdgeStyle;rounded=0;orthogonalLoop=1;jettySize=auto;html=1;" parent="1" source="_rezS92-L02Tb0f8z7KF-27" target="_rezS92-L02Tb0f8z7KF-29" edge="1">
          <mxGeometry relative="1" as="geometry" />
        </mxCell>
        <mxCell id="_rezS92-L02Tb0f8z7KF-27" value="Timer和Profiler相关" style="whiteSpace=wrap;html=1;rounded=1;" parent="1" vertex="1">
          <mxGeometry x="330" y="640" width="120" height="60" as="geometry" />
        </mxCell>
        <mxCell id="k4mwug7wlYbRQrW8ouQw-2" value="" style="edgeStyle=orthogonalEdgeStyle;rounded=0;orthogonalLoop=1;jettySize=auto;html=1;" edge="1" parent="1" source="_rezS92-L02Tb0f8z7KF-29" target="k4mwug7wlYbRQrW8ouQw-1">
          <mxGeometry relative="1" as="geometry" />
        </mxCell>
        <mxCell id="_rezS92-L02Tb0f8z7KF-29" value="&lt;div&gt;训练数据加载器&lt;/div&gt;data_loader" style="whiteSpace=wrap;html=1;rounded=1;" parent="1" vertex="1">
          <mxGeometry x="330" y="780" width="120" height="60" as="geometry" />
        </mxCell>
        <mxCell id="k4mwug7wlYbRQrW8ouQw-1" value="配置优化器和lr_schedule" style="whiteSpace=wrap;html=1;rounded=1;" vertex="1" parent="1">
          <mxGeometry x="290" y="900" width="200" height="60" as="geometry" />
        </mxCell>
      </root>
    </mxGraphModel>
  </diagram>
  <diagram id="_L0nOYbbqjnOgOmmgLZv" name="DeepSpeedDataLoader">
    <mxGraphModel dx="1440" dy="857" grid="1" gridSize="10" guides="1" tooltips="1" connect="1" arrows="1" fold="1" page="1" pageScale="1" pageWidth="827" pageHeight="1169" math="0" shadow="0">
      <root>
        <mxCell id="0" />
        <mxCell id="1" parent="0" />
      </root>
    </mxGraphModel>
  </diagram>
</mxfile>
